<svg id="App-store" xmlns="http://www.w3.org/2000/svg" width="182" height="64">
    <defs>
        <style>
            .cls-2,.cls-3{fill:#fff}.cls-3{stroke:#fff;stroke-miterlimit:10;stroke-width:.16px}
        </style>
    </defs>
    <rect id="Rectangle_7135" data-name="Rectangle 7135" width="182" height="64" rx="8" style="fill:#07074e"/>
    <g id="Group_56006" data-name="Group 56006" transform="translate(14.125 9.08)">
        <path id="Union_1" data-name="Union 1" class="cls-2" d="M3.685 30.019c-3-4.271-5.327-12.038-2.2-17.322a8.619 8.619 0 0 1 7.229-4.306c2.295-.046 4.424 1.509 5.834 1.509 1.383 0 4.015-1.864 6.729-1.585a8.263 8.263 0 0 1 6.452 3.406 7.8 7.8 0 0 0-3.81 6.552 7.577 7.577 0 0 0 4.719 6.942 17.121 17.121 0 0 1-2.454 4.885c-1.446 2.11-2.962 4.174-5.367 4.212-2.338.053-3.125-1.343-5.8-1.343-2.705 0-3.543 1.306-5.785 1.4h-.117c-2.24-.003-3.957-2.295-5.43-4.35zm10.587-22.1a7.207 7.207 0 0 1 1.849-5.3A8.087 8.087 0 0 1 21.306 0a7.568 7.568 0 0 1-1.8 5.508 6.828 6.828 0 0 1-4.889 2.428q-.173 0-.345-.013z" transform="translate(4 4)"/>
        <path id="Union_2" data-name="Union 2" class="cls-2" d="M31.762 22.237V9.023q0-1.965-.1-4.034h2.468l.157 1.942h.052a5.087 5.087 0 0 1 7.993-.48 6.637 6.637 0 0 1 1.493 4.514 6.833 6.833 0 0 1-1.742 4.941 5.161 5.161 0 0 1-3.871 1.614 3.905 3.905 0 0 1-3.586-1.74h-.052v6.456zM35.8 7.572a3.084 3.084 0 0 0-1.1 1.754 3.5 3.5 0 0 0-.131.83V12.2a3.224 3.224 0 0 0 .842 2.257 2.846 2.846 0 0 0 2.2.921 2.9 2.9 0 0 0 2.468-1.186 5.1 5.1 0 0 0 .885-3.127 4.938 4.938 0 0 0-.833-2.95A2.9 2.9 0 0 0 37.688 6.9a2.978 2.978 0 0 0-1.888.672zM17.232 22.237V9.023q0-1.965-.1-4.034H19.6l.156 1.942h.052a4.714 4.714 0 0 1 4.262-2.193 4.742 4.742 0 0 1 3.73 1.713 6.62 6.62 0 0 1 1.5 4.514 6.836 6.836 0 0 1-1.742 4.941 5.165 5.165 0 0 1-3.872 1.614 3.908 3.908 0 0 1-3.587-1.74h-.053v6.456zm4.043-14.665a3.082 3.082 0 0 0-1.1 1.754 3.454 3.454 0 0 0-.131.83V12.2a3.214 3.214 0 0 0 .845 2.257 2.841 2.841 0 0 0 2.2.921 2.9 2.9 0 0 0 2.468-1.186 5.1 5.1 0 0 0 .884-3.127 4.938 4.938 0 0 0-.832-2.95 2.9 2.9 0 0 0-2.45-1.215 2.972 2.972 0 0 0-1.884.672zm51.306 8.159a6.4 6.4 0 0 1-1.651-4.513 6.54 6.54 0 0 1 1.7-4.664 5.982 5.982 0 0 1 4.587-1.816 5.86 5.86 0 0 1 4.47 1.79 6.33 6.33 0 0 1 1.613 4.488 6.6 6.6 0 0 1-1.664 4.639 6.027 6.027 0 0 1-4.629 1.866 5.736 5.736 0 0 1-4.426-1.789zM74.545 8.2a5.484 5.484 0 0 0-.754 2.959 5.374 5.374 0 0 0 .754 2.907 2.91 2.91 0 0 0 5.067-.026 5.4 5.4 0 0 0 .778-2.933 5.381 5.381 0 0 0-.752-2.907 2.786 2.786 0 0 0-2.52-1.47 2.829 2.829 0 0 0-2.573 1.47zM49.2 16.437l.651-2.269a7.872 7.872 0 0 0 4.049 1.085 3.924 3.924 0 0 0 2.471-.694 2.243 2.243 0 0 0 .881-1.858 2.332 2.332 0 0 0-.727-1.742 6.835 6.835 0 0 0-2.417-1.314q-4.6-1.664-4.6-4.873a4.258 4.258 0 0 1 1.613-3.434A6.485 6.485 0 0 1 55.415 0a8.719 8.719 0 0 1 3.975.807l-.7 2.219a7.077 7.077 0 0 0-3.353-.782 3.462 3.462 0 0 0-2.312.706 1.99 1.99 0 0 0-.7 1.539 2.052 2.052 0 0 0 .8 1.664 9.2 9.2 0 0 0 2.548 1.311A8.685 8.685 0 0 1 59 9.532a4.238 4.238 0 0 1 1.063 2.947 4.466 4.466 0 0 1-1.556 3.529 7.034 7.034 0 0 1-4.769 1.492 8.559 8.559 0 0 1-4.538-1.063zm15.234.074a4.727 4.727 0 0 1-.937-3.3V7.03h-1.845V4.986h1.843V2.743l2.757-.807v3.05h3.093v2.046h-3.093v5.95q0 2.27 1.637 2.27a5.154 5.154 0 0 0 1.247-.126l.078 2.067a6.536 6.536 0 0 1-2.183.3 3.42 3.42 0 0 1-2.599-.982zm30.995-.716a6.087 6.087 0 0 1-1.676-4.5 6.888 6.888 0 0 1 1.559-4.615 5.448 5.448 0 0 1 4.417-1.965 4.758 4.758 0 0 1 4.135 1.965 6.489 6.489 0 0 1 1.113 3.856 6.231 6.231 0 0 1-.1 1.235h-8.422a3.506 3.506 0 0 0 1.221 2.775 4.26 4.26 0 0 0 2.754.857 9.57 9.57 0 0 0 3.408-.58l.439 1.89a10.813 10.813 0 0 1-4.235.757 6.241 6.241 0 0 1-4.616-1.675zm1.859-8.083a3.99 3.99 0 0 0-.83 2.117h5.842a3.612 3.612 0 0 0-.546-2.093A2.47 2.47 0 0 0 99.52 6.6a2.687 2.687 0 0 0-2.235 1.112zm-11.542 9.532.027-8.4q0-2.118-.106-3.857h2.444l.1 2.345h.078a4.194 4.194 0 0 1 1.4-1.942 3.463 3.463 0 0 1 2.029-.656 4.648 4.648 0 0 1 .7.05v2.6a4.951 4.951 0 0 0-.884-.076 2.681 2.681 0 0 0-2.288 1.086 4 4 0 0 0-.7 2.42v6.43zm-73.946 0-1.638-4.992H4.47l-1.559 4.992H0L5.64.249h3.483l5.667 16.995zM6.42 5.72l-1.455 4.438h4.7L8.188 5.72q-.235-.68-.883-3.2h-.053q-.258 1.08-.832 3.2z" transform="translate(44.348 20.172)"/>
        <g id="Group_56005" data-name="Group 56005" transform="translate(44.348 4)">
            <path id="Path_50725" data-name="Path 50725" class="cls-3" d="M9.212 5.457a3.564 3.564 0 0 1-1 2.642 3.967 3.967 0 0 1-2.965 1.172 4.116 4.116 0 0 1-2.965-1.185 3.96 3.96 0 0 1-1.221-2.95 3.935 3.935 0 0 1 1.221-2.944A4.1 4.1 0 0 1 5.247 1a4.29 4.29 0 0 1 1.653.335 3.277 3.277 0 0 1 1.26.882l-.7.7a2.762 2.762 0 0 0-2.213-.933 3.11 3.11 0 0 0-2.2.876 3.008 3.008 0 0 0-.926 2.281 3.023 3.023 0 0 0 .926 2.287 3.139 3.139 0 0 0 2.2.876A3.1 3.1 0 0 0 7.5 7.416a2.461 2.461 0 0 0 .675-1.6H5.247v-.957h3.9a2.66 2.66 0 0 1 .065.598z" transform="translate(-1.061 -1)"/>
            <path id="Path_50726" data-name="Path 50726" class="cls-3" d="M15.317 1.971h-3.668v2.508h3.306v.953h-3.306v2.507h3.668v.971h-4.706V1h4.706z" transform="translate(-.915 -1)"/>
            <path id="Path_50727" data-name="Path 50727" class="cls-3" d="M19.634 8.91H18.6V1.971h-2.25V1h5.539v.971h-2.255z" transform="translate(-.826 -1)"/>
            <path id="Path_50728" data-name="Path 50728" class="cls-3" d="M25.805 8.91V1h1.037v7.91z" transform="translate(-.693 -1)"/>
            <path id="Path_50729" data-name="Path 50729" class="cls-3" d="M31.415 8.91h-1.03V1.971h-2.258V1h5.546v.971h-2.258z" transform="translate(-.644 -1)"/>
            <path id="Path_50730" data-name="Path 50730" class="cls-3" d="M44.076 8.072a4.145 4.145 0 0 1-7.1-2.937A4.076 4.076 0 0 1 41.123 1a3.973 3.973 0 0 1 2.947 1.205 3.991 3.991 0 0 1 1.195 2.93 4.006 4.006 0 0 1-1.189 2.937zM38.93 7.41a3.14 3.14 0 0 0 4.378 0 3.074 3.074 0 0 0 .9-2.274 3.074 3.074 0 0 0-.9-2.274 3.14 3.14 0 0 0-4.378 0 3.074 3.074 0 0 0-.9 2.274 3.074 3.074 0 0 0 .9 2.274z" transform="translate(-.446 -1)"/>
            <path id="Path_50731" data-name="Path 50731" class="cls-3" d="M46.63 8.91V1h1.26l3.918 6.152h.045l-.045-1.521V1h1.037v7.91h-1.083l-4.1-6.456h-.045l.045 1.527V8.91z" transform="translate(-.355 -1)"/>
        </g>
    </g>
</svg>
