<svg id="Header_-_base_-_bg_-_desktop" data-name="Header - base - bg - desktop" xmlns="http://www.w3.org/2000/svg" width="1445" height="800">
    <defs>
        <clipPath id="clip-path">
            <path id="Rectangle_8464" data-name="Rectangle 8464" class="cls-1" transform="translate(-3 18)" d="M0 0h1443v799H0z"/>
        </clipPath>
        <style>
            .cls-1{fill:#f6fafa}
        </style>
    </defs>
    <path id="Base" class="cls-1" d="M0 0h1444v800H0z"/>
    <g id="Header_-_base_-_bg" data-name="Header - base - bg" transform="translate(5 -18)" style="clip-path:url(#clip-path)">
        <path id="Shade" d="M170 56.057A113.943 113.943 0 1 0 283.943 170 114.072 114.072 0 0 0 170 56.057M170 0A170 170 0 1 1 0 170 170 170 0 0 1 170 0z" transform="translate(-200 618)" style="fill:#ebf7f5"/>
        <path id="bg" d="M-724.938 1311.815c-113.331 90.723-243.4 158.922-376.5 148.35-2.693-.213-5.458-.483-7.895-1.977-12.9-7.909-118.927 12.412-108.366 0 74.94-88.06 259.361-230.463 320.591-334.7 29.836-50.793 57.951-103.525 81.4-159.7 10.325-24.741 60.8-148.7 9.915-156.675-23.97-3.751 19.455-43.171 0-26.266-33.313 28.948-135.449 127.053-161.626 166.371a1998.8 1998.8 0 0 1-180.108 232.234c-21.735 24.058-44.246 47.645-70.169 63.338-5.577 3.376-11.773 6.431-17.764 4.582-18.292-5.652-12.362-41.51-1.361-61.206 30.428-54.481 68.178-101.43 100.6-153.953s-44.257-4.42-39.183-71.267c2.746-36.2 101.094-186.17 77.925-206.856-27.124-24.214-64.268-9.928-94.008 8.465-84.407 52.2-157.14 130.454-233.29 200.7-73.639 67.927-242.339 288.823-341.74 322.933-3.32 1.139-74.99 62.078-78.046 62.647-6.936 1.294-40.826 71.241-31.485 48.92 31.9-76.218 250.21-492.221 296.272-555.221 71.681-98.039 117.909-189.923 189.59-287.962 44.074-75.483 263.44-272.841 299.857-309.406 1.359-1.365-40.257 7.659 27.692 31.795-4.136-1.229-175.058 275.352-237.336 365.989-15.182 22.1-31.458 50.453-24 78.374 47.06 3.695 89.609-32.422 130.365-63.025 57.717-43.338 119.246-78.208 183.019-103.728 15.8-6.321 36.6-9.947 45.621 7.946 6.34 12.572 2.939 29.311-1.66 43.088-36.651 109.753-133.536 175.566-158.937 290.5-2.141 9.68-3.644 20.49-.131 29.475 8.289 21.2 33.026 13.211 49.024 1.5 88.69-64.918 166.348-151.8 249.711-227.582S-651.063 557.5-549.73 543.01c40.253-5.755 88.354 2.051 108.571 47.358 21.7 48.632-1.529 109.412-26.621 155.244-47.073 85.98-102.4 164.42-164.309 232.955-42.676 47.243-89.267 90.921-120.269 151.466-11.373 22.21-20.638 47.419-20.75 74.042s10.857 54.62 30.062 64.313c10.386 5.241 21.938 4.78 33.028 3.3 94.251-12.591 177.478-91.948 271.875-102.54 15.766-1.769 33.592-.573 44.489 14.243 11.434 15.543 10.616 41.27 2.457 59.937s-22.053 31.812-35.744 43.94c-83.123 73.643-174.407 131.9-270.2 172.456" transform="translate(2336.215 -358.085)" style="fill:rgba(42,184,164,.05)"/>
        <path id="icon" d="M-8767.8 908.5c-6.275-6.958-1.367-17.231.253-20.606l.625-1.294a1.32 1.32 0 0 1 .105-.211c-1.621-.3-3.314-.608-4.966-1.039a29.737 29.737 0 0 1-2.873-.88 12.265 12.265 0 0 1-6.033-4.189 8.243 8.243 0 0 1-1.25-2.632v-.017a10.52 10.52 0 0 1-.4-3.019c0-3.834 1.708-8.266 3.524-12.965.251-.638.49-1.25.714-1.858a41.229 41.229 0 0 1-6.68-.849 1.912 1.912 0 0 1-.3.024 1.852 1.852 0 0 1-1.184-.425 12 12 0 0 1-6.019-3.793l-.013-.01a1.9 1.9 0 0 1-.291-.282 1.854 1.854 0 0 1-.3-.5 13.283 13.283 0 0 1-2-5.12 1.856 1.856 0 0 1 1.5-2.156 1.835 1.835 0 0 1 2.157 1.487 11.113 11.113 0 0 0 .624 2.214.066.066 0 0 0 .006.012l11.431-9.5a3.581 3.581 0 0 0-.327-.193 1.869 1.869 0 0 1-.714-2.544 1.854 1.854 0 0 1 2.53-.7 13.1 13.1 0 0 1 1.7 1.123 1.859 1.859 0 0 1 1.735.643 1.856 1.856 0 0 1 .412 1.431c3.451 4.325 2.648 10.118.852 15.776a27.141 27.141 0 0 1 5 .907.462.462 0 0 0 .073.017l.444.132c4.389 1.43 7.346 3.851 8.776 7.213a14.921 14.921 0 0 1 .743 8.266 23.688 23.688 0 0 1-.536 2.618 51.315 51.315 0 0 1-2.932 8.044 25.8 25.8 0 0 1 3.584 1.026c.355 0 .743.014 1.161.031h.024a1.857 1.857 0 0 1 1.94.2 8.68 8.68 0 0 1 4.861 2.327 9.254 9.254 0 0 1 2.288 6.9 1.854 1.854 0 0 1-1.857 1.827h-.048a1.856 1.856 0 0 1-1.8-1.722v-.014l-14.058 11.446.007.007a1.917 1.917 0 0 0 .267.343 1.849 1.849 0 0 1-.132 2.632 1.9 1.9 0 0 1-1.236.475 1.835 1.835 0 0 1-1.387-.603zm.845-6.311 14.742-12a3.43 3.43 0 0 0-.3-.374 5.217 5.217 0 0 0-3.123-1.321h-.013l-10.064 7.074a1.824 1.824 0 0 1-.887.331 13.86 13.86 0 0 0-.358 6.286zm3.378-13.983-.625 1.291c-.1.224-.208.448-.312.672l-.007.014 3.679-2.585h-.011a49.984 49.984 0 0 0-2.171-.506h-.017c-.184.366-.359.737-.539 1.108zm-1.916-5.355c.1.017.224.044.326.061a73.624 73.624 0 0 0 1.513-3.535l-4.146 3.043c.741.145 1.5.28 2.3.427zm-11.76-4.265a10.276 10.276 0 0 0 4.74 2.689l10.708-7.865a13.42 13.42 0 0 0 .087-5.994l-15.535 11.166zm-.105-10.052-.013.014a20.307 20.307 0 0 0-1.25 6.065 3.381 3.381 0 0 0 .013.357l15.151-10.882a10.675 10.675 0 0 0-4.571-2.851l-9.061 7.113a1.852 1.852 0 0 1-.264.174.03.03 0 0 1-.008.006zm2.412-6.6 2.207-1.734c-.488-.057-.979-.1-1.5-.146-.238.635-.475 1.257-.71 1.879zm-5.686-6.1c1.188.136 2.469.224 3.837.313a39.558 39.558 0 0 0 1.25-4.534.012.012 0 0 1 0-.008l-5.1 4.228zm-7.763-2.438a9.479 9.479 0 0 0 3.018 1.532l10.108-8.387v-.016a7.444 7.444 0 0 0-1.144-3.094l-11.991 9.962z" transform="rotate(-22 -4287.411 -23683.312)" style="stroke:transparent;stroke-miterlimit:10;fill:#d4dcf4"/>
        <path id="icon-2" data-name="icon" d="M-7914.27 1572.375a46.073 46.073 0 0 1-5.767-6.066 24.238 24.238 0 0 1-1.692-2.019c-.185.038-.369.078-.556.1a5.013 5.013 0 0 1-1.522-.1 2.369 2.369 0 0 1-2.282-.369c-13.195-9.224-32.542-6.269-43.25-19.73-9.106-11.444-2.5-28.958 8.208-36.907 10.927-8.109 27.482-6.63 35.471 4.867 3.985 5.737 5.212 12.77 6.271 19.523.856 5.468 1.641 12.13 4.155 17.5a2.048 2.048 0 0 1 1.756 2.083 1.583 1.583 0 0 1 2.04.443 2.09 2.09 0 0 1 .419 1.8 1.9 1.9 0 0 1 .542.148c6.154 2.719 16.65 15.571 7.061 20.484a8.325 8.325 0 0 1-3.834.922 11.523 11.523 0 0 1-7.02-2.679zm7.028-1.879c1.554.032 3.062-.614 3.21-2.639.1-1.382-.78-2.807-1.572-3.984a81.63 81.63 0 0 0-1.637 6.627zm-5.166-2.533a11.16 11.16 0 0 0 2.016 1.566 26.861 26.861 0 0 1 3.168-7.861c-.782-.951-1.618-1.839-2.46-2.727-.122 3.075-.91 6.621-2.723 9.023zm-5.162-5.97c.574.644 1.109 1.39 1.743 2.122.415.483.84 1 1.277 1.518.5-1.1 1.093-2.172 1.506-3.293.63-1.713 1.135-3.521 1.606-5.284-.3-.331-.6-.662-.895-1a.356.356 0 0 1-.02-.03 44.928 44.928 0 0 1-5.215 5.968zm-5.474-2.8a3.042 3.042 0 0 1 .656.8c.066-.034.138-.082.207-.12a.566.566 0 0 1-.163-.162l-.181-.311a.347.347 0 0 1-.038-.235c-.008-.01-.018-.01-.026-.02-.074-.056-.14-.12-.212-.177-.079.074-.163.145-.241.225zm1.9-1.757a2.743 2.743 0 0 1 .417 1.426 25.954 25.954 0 0 0 2.045-1.853c.4-.421 1.4-1.708 2.437-2.829-.072-.076-.153-.152-.225-.231a39.076 39.076 0 0 0-4.677 3.487zm-33.248-47.421a24.935 24.935 0 0 0-12.264 15.178c-2.487 8.284.006 15.31 7.281 19.916 10.015 6.335 22.636 6 32.851 11.777.2-.215.433-.419.656-.626-.032-.03-.064-.056-.094-.086-1.939-1.817-3.8-3.718-5.717-5.557a515.018 515.018 0 0 0-5.276-4.971q-1.33-1.236-2.667-2.456c-.4-.367-1.909-1.273-2.011-1.624a1.73 1.73 0 0 1-1.468-1.7v-.245a1.854 1.854 0 0 1 1.8-1.8c1.847-.2 3.108 1.576 4.317 2.721q3.946 3.736 7.721 7.65c1.939 2.009 3.886 4.025 5.685 6.166.417-.319.818-.626 1.167-.9.2-.158.407-.3.612-.457-2.627-2.164-4.781-5.7-6.864-7.937q-2.593-2.794-5.344-5.434c-1.661-1.6-3.369-2.555-3.716-4.9a1.126 1.126 0 0 1 1.069-1.4c4.193.188 8.093 6.13 10.692 9.034a80.7 80.7 0 0 1 5.477 6.162 27.426 27.426 0 0 1-2.412-6.07c-1.432-5.242-2.092-10.66-3.287-15.956-1.349-5.976-3.517-12-8.877-15.517a19.143 19.143 0 0 0-10.477-3.025 19.827 19.827 0 0 0-8.862 2.058zm10.1 64.875a3.041 3.041 0 0 1-2.166-2.515 2.766 2.766 0 0 1 .927-2.551c.19-.427.375-.856.571-1.277a6.8 6.8 0 0 1 1.179-2.124 1.422 1.422 0 0 1 2.214.287 9.99 9.99 0 0 1 .726 3.762 3.252 3.252 0 0 1-.036 3.028 3.1 3.1 0 0 1-2.646 1.492 2.894 2.894 0 0 1-.777-.102zm-22.3-6c-.616-2.049.718-4.129 1.789-5.777.331-.511.241-.381.148-.251s-.167.237.064-.122c.147-.234.311-.449.474-.672-.1.137.142-.209.177-.262.1-.16.2-.325.307-.487a3.408 3.408 0 0 1 1.069-1.267 4.78 4.78 0 0 1 .451-.251 1.648 1.648 0 0 1 2.43.91 3.516 3.516 0 0 1 .192.59 3.858 3.858 0 0 1-.084 1.614 3.4 3.4 0 0 0-.088.662c-.026.349-.058.708-.088 1.065-.006.06-.024.3-.026.371-.036.279-.076.555-.122.834 0 0-.03.231-.052.379-.006.126-.018.289-.018.3-.03.359-.094.716-.15 1.071a5.465 5.465 0 0 1-1.255 2.675 2.6 2.6 0 0 1-2.033.939 3.422 3.422 0 0 1-3.193-2.321zm-21-21.926c2.615-2.354 7.919-3.868 11.378-3.066a2.244 2.244 0 0 1 .983 3.722 18.519 18.519 0 0 1-4.25 2.6 23.522 23.522 0 0 1-4.829 2.38 3.235 3.235 0 0 1-.791.1c-2.77 0-4.87-3.6-2.499-5.735zm77.636-8.793a2.445 2.445 0 0 1 3.054-2.685 20.648 20.648 0 0 0 2.36.307 14.939 14.939 0 0 1 2.236.746.691.691 0 0 1 .163 1.245 15.894 15.894 0 0 1-1.974 1.285 22.534 22.534 0 0 0-2.2.89 2.289 2.289 0 0 1-1.2.34 2.491 2.491 0 0 1-2.445-2.127zm-75.819-13.044a3.445 3.445 0 0 1-3.369-3.888 3.413 3.413 0 0 1 4.281-2.851c1.829.626 4.478.922 5.785 2.442a2.28 2.28 0 0 1 0 3.178 6.135 6.135 0 0 1-4.2 1.274c-.851 0-1.704-.082-2.504-.155zm70.434-10.883a22.569 22.569 0 0 1 6.6-3.154 3.571 3.571 0 0 1 4.313 2.45 3.58 3.58 0 0 1-2.449 4.313 22.493 22.493 0 0 1-7.181 1.111h-.091c-2.562.003-3.189-3.425-1.199-4.719zm-59-8.4a9.305 9.305 0 0 1-3.078-4.025 20.01 20.01 0 0 1-.93-2.055 12.626 12.626 0 0 1-.363-2.316 1.975 1.975 0 0 1 2.862-2.2 13.525 13.525 0 0 1 3.5 2.655c1.085 1.189 2.48 2.671 2.779 4.269a3.3 3.3 0 0 1-1.165 3.415 3.479 3.479 0 0 1-2.058.69 2.884 2.884 0 0 1-1.558-.428zm49.989-3.142a3.214 3.214 0 0 1-2.27-3.479 3.154 3.154 0 0 1 3.114-2.749h.168a2.566 2.566 0 0 1 .754-.11c.2-.052.407-.1.609-.17.451-.146 1.089-.449 1.855-.68a2.173 2.173 0 0 1 2.651 2.651 6.5 6.5 0 0 1-3.389 3.71 3.474 3.474 0 0 1-2.386 1.039 3.1 3.1 0 0 1-1.116-.208zm-25.806-11.8c.03-2.633.353-5.783 2.388-7.686a2.135 2.135 0 0 1 3.525.93c.625 1.865.393 3.928.8 5.845a3.429 3.429 0 0 1-2.844 4.269 3.371 3.371 0 0 1-.451.03 3.406 3.406 0 0 1-3.428-3.383z" transform="rotate(5.13 12291.336 101661.8)" style="opacity:.2;fill:#f58e44;stroke:transparent;stroke-miterlimit:10"/>
        <path id="icon-3" data-name="icon" d="M-8493.572 1547.833c-4.045-3.842-7.654-7.179-13.026-9.108-5.681-2.04-11.466-2.031-17.388-2.553a1.435 1.435 0 0 1-1.354-1.214c-3.3-2.931-5.543-6.8-9.344-9.395a30.026 30.026 0 0 0-14.387-5.134 1.563 1.563 0 0 1-1.328-2.315 6.026 6.026 0 0 0 .221-4.949 1.376 1.376 0 0 1 .563-1.617c2.735-7.16 5.6-14.246 8.967-21.141 1.517-3.108 2.92-7.031 5.134-9.7 1.619-1.955 3.92-1.763 6.255-1.491a29.559 29.559 0 0 1 14.578 6.065c3.08 2.383 7.8 6.844 8.81 11.26a2.191 2.191 0 0 1 .524.362 25.77 25.77 0 0 1 15.525-2.984 30.824 30.824 0 0 1 18.879 8.923 2.055 2.055 0 0 1 .548 1.761.836.836 0 0 1 .392.462c2.686 7.357-2.433 13.538-6.642 19.1a194.438 194.438 0 0 0-14.718 22.819 1.485 1.485 0 0 1-1.248.837.8.8 0 0 1-.513.188.638.638 0 0 1-.448-.176zm-1.33-4.8c-.066-.523-.132-1.048-.2-1.571a1.738 1.738 0 0 1-.39-.318 26.374 26.374 0 0 0-26.227-8.147 1.237 1.237 0 0 1-.073.226h.32c8.94-.002 20.743 2.626 26.572 9.809zm3.109-3.3.146 1.411c3.236-4.966 6.65-9.81 10.168-14.592 4.355-5.927 11.152-12.177 10.1-20.093q-10.204 16.641-20.414 33.273zm-2.667-3.142q9.782-16 19.563-31.987c-8.2-7.271-20.126-8.687-30.352-5.051q-7.953 14.409-15.164 29.205a29.942 29.942 0 0 1 5.146-.444 30.258 30.258 0 0 1 20.807 8.276zm-52.5-18.964a32.621 32.621 0 0 1 14.227 5.8 35.456 35.456 0 0 1 5.427 4.742 25.919 25.919 0 0 0-19.363-13.475 8.237 8.237 0 0 1-.295 2.932zm11.605-30.19q-2.027 4.016-3.9 8.113c-2.332 5.095-4.5 10.277-6.394 15.552a28.914 28.914 0 0 1 21.885 15.761q7.4-15 15.5-29.64c.007-.012.019-.022.026-.036-.562-.909-1.05-1.877-1.648-2.767a28.39 28.39 0 0 0-5.021-5.708 26.433 26.433 0 0 0-14.354-6.279 7.547 7.547 0 0 0-.77-.041c-3.141-.002-3.928 2.278-5.327 5.044zm39.239 37.919c-2.753-3.755-6.953-3.9-11.129-4.577a.432.432 0 0 1-.187-.72c4.28-3.585 10.936-.467 14.032 3.2a1.723 1.723 0 0 1-1.272 2.9 1.779 1.779 0 0 1-1.447-.804zm6.174-6.656c-2.258-.807-3.783-2.955-6.076-3.949-2.5-1.082-5.29-1.155-7.973-1.286-.293-.015-.545-.426-.267-.647 2.507-2 5.516-2.172 8.595-1.5 2.672.581 7.037 2.612 7.492 5.613a1.554 1.554 0 0 1-1.319 1.855 1.35 1.35 0 0 1-.455-.086zm-34.571-2.466c-3.1-2.977-6.212-7.128-11-7.1a1.587 1.587 0 0 1-1.373-.788l-.209-.372a1.061 1.061 0 0 1 .16-1.255l.3-.306a1.567 1.567 0 0 1 1.552-.411c4.659 1.753 10.559 4.044 11.567 9.652a.627.627 0 0 1-.586.75.581.581 0 0 1-.415-.172zm38.565-5.061-.008.07c-4.107-4.511-9.754-5.486-15.623-4.4a.473.473 0 0 1-.454-.783c5.46-5.394 14.76-2.913 18.942 2.974.941 1.325-.341 2.646-1.632 2.646a1.7 1.7 0 0 1-1.228-.508zm-35.29-2.892a.432.432 0 0 1-.3-.3c-.842-4.689-5.966-7.583-10.426-7.872-2.191-.141-2.133-3.629 0-3.383a16.239 16.239 0 0 1 10.731 5.576c.944 1.126 2.059 2.609 1.927 4.168-.075.881-.578 1.891-1.475 1.891a1.412 1.412 0 0 1-.46-.081zm3.861-8.028c.363-2.41-2.582-4.956-4.24-6.26a18.177 18.177 0 0 0-2.823-1.821 11.145 11.145 0 0 0-1.574-.734c-.676-.224-1.255-.041-1.165-.5a.984.984 0 0 1-1.625.428c-1.344-1.094-.312-2.836 1.117-3.215 2.051-.545 4.716 1.243 6.308 2.306 2.661 1.773 9.086 7.05 5.122 10.45a.716.716 0 0 1-.468.187.7.7 0 0 1-.655-.842z" transform="rotate(6.02 9346.234 94955.403)" style="fill:#26b6a1;opacity:.2;stroke:transparent;stroke-miterlimit:10"/>
        <path id="icon-4" data-name="icon" d="M-8486.742 1073.178a27.961 27.961 0 0 1-6.351-.809 14.545 14.545 0 0 0-2.284-.328 19.151 19.151 0 0 1-4.978-1.148 13.235 13.235 0 0 1-2.169-1.077c-1-.579-2.009-1.139-3-1.721a3.936 3.936 0 0 1-1.236-.905 1.887 1.887 0 0 0-.521-.369 18.449 18.449 0 0 1-2.146-1.375 36.472 36.472 0 0 1-3.038-2.519 1.419 1.419 0 0 1-.245-.3 12.116 12.116 0 0 0-1.347-1.854 9.748 9.748 0 0 0-1.045-1.287.5.5 0 0 1-.159-.2 6.415 6.415 0 0 0-1.192-1.8c-.165-.247-.3-.515-.442-.779a3.674 3.674 0 0 0-.36-.676 11.379 11.379 0 0 1-1.545-2.789 2.613 2.613 0 0 0-.281-.577 9.029 9.029 0 0 1-1.231-2.493 6.551 6.551 0 0 0-.5-1.038 28.809 28.809 0 0 1-1.771-4.119c-.03-1.289-.637-2.457-.772-3.737a24.8 24.8 0 0 0-.787-3.293c-.939-.513-1.778-1.034-2.669-1.446a35.371 35.371 0 0 0-3.216-1.3 22.762 22.762 0 0 1-4.287-2.025c-.36-.221-.8-.318-1.147-.553-.672-.455-1.4-.809-2.043-1.324a5.336 5.336 0 0 0-1.639-.985 5.927 5.927 0 0 1-1.2-.736 23.197 23.197 0 0 0-.769-.457 2.781 2.781 0 0 1-.35-.161c-.809-.622-1.646-1.217-2.409-1.89-.7-.622-1.319-1.343-1.993-2a9.331 9.331 0 0 1-1.6-1.972 8.922 8.922 0 0 1-.884-1.538 3.943 3.943 0 0 1-.072-2.617 3.163 3.163 0 0 1 1.909-2.06c.663-.264 1.439-.3 1.954-.886.774-.249 1.538-.536 2.326-.734a25.243 25.243 0 0 1 3.248-.7 11.294 11.294 0 0 0 1.515-.281 23.25 23.25 0 0 1 4.162-.719c.556-.041 1.115-.011 1.669-.066a24.939 24.939 0 0 0 2.925-.27 7.242 7.242 0 0 1 2.295-.122 16.563 16.563 0 0 0 2.3-.092c.468-.019.938-.034 1.408-.013 1.536.067 3.076.152 4.614.223.211.011.423-.013.614-.021a22.757 22.757 0 0 0 2.108-2.622c.165-.279.52-.438.744-.691.794-.89 1.605-1.77 2.344-2.7a9.89 9.89 0 0 1 3.089-2.65 3.853 3.853 0 0 1 1.373-.672.411.411 0 0 0 .224-.12 7.464 7.464 0 0 1 2.465-1.3c.7-.326 1.4-.648 2.109-.94.628-.26 1.287-.446 1.911-.717a49.979 49.979 0 0 1 4.318-1.611c1.095-.358 2.228-.6 3.35-.867a22.9 22.9 0 0 1 4.164-.648 15.227 15.227 0 0 1 3.4-.635 7.353 7.353 0 0 1 1.131-.045h.4a1.329 1.329 0 0 1 .225.019 1.089 1.089 0 0 0 .288.019 16.263 16.263 0 0 1 2.354-.047c.366.009.735.019 1.1.019a10.185 10.185 0 0 1 1.02.073c.637.06 1.28.1 1.911.2a15.749 15.749 0 0 1 2.384.489 12.21 12.21 0 0 1 2.849 1.133c.457.292 1.052.365 1.532.635 1.229.7 2.59 1.086 3.836 1.766 1.163.633 2.3 1.315 3.463 1.942 1.4.755 2.637 1.729 3.947 2.6a20.452 20.452 0 0 1 4.274 4.246 30.07 30.07 0 0 1 2.935 3.9 31.777 31.777 0 0 1 2.4 4.668 7.761 7.761 0 0 1 .561 2.206 2.98 2.98 0 0 0 .315.961 11.713 11.713 0 0 1 .785 2.158c.142.622.38 1.225.525 1.849s.236 1.257.354 1.9a23.931 23.931 0 0 1 5.564 1.957 3.874 3.874 0 0 0 .483.178 18.76 18.76 0 0 1 3.768 1.607 1.744 1.744 0 0 0 .348.165 24.213 24.213 0 0 1 4.258 2.081c1.163.629 2.251 1.395 3.425 2.017a7.924 7.924 0 0 1 .982.815c1.115.858 2.235 1.714 3.364 2.557a13.56 13.56 0 0 1 2.63 2.433 15.92 15.92 0 0 1 1.319 2.313 5.931 5.931 0 0 0 .307.689 9.68 9.68 0 0 1 .614 2.57 2.115 2.115 0 0 1-.685 1.349 10.259 10.259 0 0 1-2.676 1.948c-1.169.515-2.361.955-3.563 1.388a27.622 27.622 0 0 1-6.4 1.292 16.709 16.709 0 0 0-3.015.611 1.9 1.9 0 0 1-.751.135 11.086 11.086 0 0 0-2.28.015c-.521.039-1.043.077-1.564.067-.848-.019-1.694-.052-2.542-.073a6.066 6.066 0 0 0-.766 0c-.853.082-1.7.18-2.552.272a.31.31 0 0 1-.124.009 4.6 4.6 0 0 0-1.986-.1 4.663 4.663 0 0 1-1.948-.084 2.52 2.52 0 0 0-.848.067c-.6.931-1.149 1.789-1.7 2.65-.715 1.113-1.367 2.274-2.156 3.33a24.193 24.193 0 0 1-2.547 2.894 24.227 24.227 0 0 1-4.868 3.948 1.315 1.315 0 0 0-.214.142 18.825 18.825 0 0 1-3.943 2.386c-1.4.727-2.871 1.319-4.312 1.961a4 4 0 0 1-.618.172 3.266 3.266 0 0 0-1.437.5 1.36 1.36 0 0 1-.482.15q-1.107.322-2.212.641a.92.92 0 0 1-.247.073c-1.163-.039-2.27.356-3.433.384q-.5.013-1 .012c-1.881.021-3.759-.093-5.642-.101zm.279-1.47c.594.047 1.19.1 1.787.127 1.1.049 2.205.122 3.309.109a19.733 19.733 0 0 0 3.065-.208 11.5 11.5 0 0 0 3.235-.766 3.491 3.491 0 0 1 .751-.154 2.638 2.638 0 0 0 .613-.163 32.019 32.019 0 0 1 4.653-1.792 1 1 0 0 0 .236-.1c.59-.339 1.178-.68 1.907-1.1.013-.238.034-.489.043-.742a5.353 5.353 0 0 0-.723-2.8 20.808 20.808 0 0 0-2.629-3.128c-.517-.626-1.113-1.186-1.656-1.794a4.448 4.448 0 0 0-.886-.719 6.47 6.47 0 0 0-2.933-.843c-1.484-.182-2.984-.255-4.479-.345a7.4 7.4 0 0 0-2.534.086.863.863 0 0 1-.307 0 1.092 1.092 0 0 0-.2-.013 12.5 12.5 0 0 0-4.241.86 10.775 10.775 0 0 0-2.611 1.626 13.881 13.881 0 0 0-2.9 3.227 7.158 7.158 0 0 0-1.111 3.111 3.531 3.531 0 0 0 .213 2 23.981 23.981 0 0 0 1.276 2.223 1.277 1.277 0 0 0 .809.6 11.537 11.537 0 0 0 3.658.573 2.6 2.6 0 0 1 .266-.013c.459-.003.927.101 1.389.139zm-30.14-25.615a1.981 1.981 0 0 1 1.953 1.214 24.52 24.52 0 0 1 .993 3.051 4.88 4.88 0 0 1-.125 2.9 1.978 1.978 0 0 1-1.768 1.45 4.9 4.9 0 0 0-.774.193 32.574 32.574 0 0 0 1.965 2.965 44.39 44.39 0 0 1 2.393 3.18 6.766 6.766 0 0 0 .961 1.023c.309.29.656.538.985.809.69.573 1.373 1.154 2.07 1.719 1.4 1.131 3 1.961 4.4 3.1a15.651 15.651 0 0 0 3.993 2.019 12.517 12.517 0 0 0 1.832.524c1.038.26 2.081.5 3.126.744a.351.351 0 0 0 .439-.15c-.02-.082-.011-.187-.06-.24-.833-.9-.889-2.113-1.234-3.2a2.414 2.414 0 0 1 0-1.021c.064-.511.178-1.013.283-1.515a6.958 6.958 0 0 1 1.575-2.907c.857-1.064 1.862-2.006 2.748-3.049a5.7 5.7 0 0 1 1.716-1.319 13.078 13.078 0 0 1 4.525-1.362 29.356 29.356 0 0 1 4.836-.137c.855.032 1.71.062 2.563.1a16.4 16.4 0 0 1 3.918.594 6.332 6.332 0 0 1 3.2 2.261 24.3 24.3 0 0 0 2.03 2.3 6.613 6.613 0 0 1 .725.873 14.389 14.389 0 0 1 1.167 2.137 4.368 4.368 0 0 1 .518 2.221c0 .064.086.135.178.266a15.65 15.65 0 0 0 5.042-3.821 1.784 1.784 0 0 1-.32-1.944 2.247 2.247 0 0 1 2.5-1.36c.307.105.611.343 1.015.161a41.968 41.968 0 0 0 3.875-5.951 15.227 15.227 0 0 1-4.814-.466 4.024 4.024 0 0 0-.509-.064c-.934-.12-1.864-.251-2.8-.36a1.392 1.392 0 0 0-.626.024 3.107 3.107 0 0 1-2.011-.122 3.382 3.382 0 0 0-.733-.2 17.621 17.621 0 0 0-3.187-.345.836.836 0 0 1-.375-.077 3.828 3.828 0 0 0-1.5-.182c-.219 0-.439.006-.658-.006a13.541 13.541 0 0 0-2.276-.369 1.913 1.913 0 0 1-.636-.026 7.975 7.975 0 0 0-2.748-.539c-.039 0-.079-.026-.12-.036-1.423-.288-2.78-.813-4.212-1.083-.654-.122-1.248-.53-1.967-.285a1.338 1.338 0 0 1-.633-.084c-1.912-.444-3.845-.8-5.722-1.384-1.839-.577-3.778-.742-5.606-1.373a4.718 4.718 0 0 0-.893-.129 5.221 5.221 0 0 1-.635-.082 36.785 36.785 0 0 0-4.135-.9 2.414 2.414 0 0 1-.866-.23 19.46 19.46 0 0 0-2.577-.714c-.547.135-.944-.33-1.47-.358a14.34 14.34 0 0 1-3.205-.809c-.817-.24-1.635-.5-2.45-.747a4.865 4.865 0 0 1-.594-.21c-.7-.333-1.373-.7-2.077-1.008a6.68 6.68 0 0 0-1.678-.616 16.976 16.976 0 0 1-3.4-1.109c-1.084-.395-2.129-.893-3.192-1.339-.271-.112-.543-.266-.869-.084a1.307 1.307 0 0 0 .015.365c.363 1.229.582 2.491.865 3.737a13.75 13.75 0 0 0 1.332 3.519 1.474 1.474 0 0 0 1.187.12 8.5 8.5 0 0 1 2.04-.259 3.28 3.28 0 0 1 .495.003zm58 14.486a1.685 1.685 0 0 0-1.3.9c-.182.318-.09.62.243.91.233-.262.427-.476.619-.691.226-.251.453-.5.767-.845-.149-.131-.245-.275-.32-.275zm-58.736-13.345a17.116 17.116 0 0 0-2.4.564 2.15 2.15 0 0 0 .1.53 17.064 17.064 0 0 1 1.094 2.313 18.442 18.442 0 0 0 1.208 2.379.547.547 0 0 0 .611.358 9.941 9.941 0 0 0 1.373-.315.768.768 0 0 0 .45-.421 3.786 3.786 0 0 0 .091-2.635c-.26-.633-.545-1.262-.74-1.916a1.037 1.037 0 0 0-1.018-.807c-.2-.018-.4-.066-.6-.066a.936.936 0 0 0-.164.018zm62.271 4.516c1.228.163 2.452.339 3.68.493a8.384 8.384 0 0 0 2.814.084 12.1 12.1 0 0 1 3.7-.157 2.834 2.834 0 0 0 .893.067 9.522 9.522 0 0 1 2.922.056c1.2.062 2.386.017 3.578.054.64.019 1.283-.045 1.923-.088.6-.043 1.188-.129 1.785-.165a15.483 15.483 0 0 0 4.295-.614 17.313 17.313 0 0 0 1.69-.568 14.616 14.616 0 0 0 3.094-1.519 6.963 6.963 0 0 1 1.077-.89 1.688 1.688 0 0 0 .882-1.682 5.8 5.8 0 0 0-.477-2.345 8.76 8.76 0 0 0-1.622-3.143c-.317-.341-.566-.747-.888-1.081a9.819 9.819 0 0 0-.97-.837c-.267-.212-.556-.393-.819-.6-.966-.772-1.97-1.5-2.95-2.251a23.462 23.462 0 0 0-3.094-1.822 53.957 53.957 0 0 0-7.9-3.7c-1.574-.553-3.108-1.234-4.664-1.843-.264-.1-.532-.309-.884-.092a3.87 3.87 0 0 0 .135 2.156c.991.345 1.882.641 2.764.968.923.341 1.848.676 2.746 1.073 1.525.674 3.029 1.4 4.549 2.09a11.248 11.248 0 0 1 2.327 1.339 14.208 14.208 0 0 0 1.421.877c1.023.624 2.074 1.21 3.062 1.888a8.32 8.32 0 0 1 2.866 3.83 1.073 1.073 0 0 1-.457 1.446 7.908 7.908 0 0 1-1.676.938 22.443 22.443 0 0 1-5.365 1.219c-1.363.146-2.738.176-4.106.272a11.91 11.91 0 0 0-2.038.215 3.856 3.856 0 0 1-1.385.019 6.486 6.486 0 0 0-.789-.052 23.567 23.567 0 0 1-3.971-.191 23.55 23.55 0 0 0-4.478-.174c-.6.019-1.193 0-1.79-.034-.513-.032-1.017-.131-1.529-.165a42.166 42.166 0 0 1-5.6-.656 12.081 12.081 0 0 0-3.687-.391 3.852 3.852 0 0 1-1.135-.2c-.206-.043-.4-.159-.611-.182-1.659-.189-3.287-.6-4.961-.687a7.979 7.979 0 0 1-1.013-.185c-.337-.06-.673-.116-1.01-.174-.464-.077-.927-.148-1.387-.238a5.253 5.253 0 0 0-.868-.225 14.273 14.273 0 0 1-2.882-.586 18.618 18.618 0 0 0-3.888-.766 1.943 1.943 0 0 1-.382-.052c-1.581-.375-3.155-.762-4.739-1.131a368.89 368.89 0 0 0-5.643-1.289c-1.633-.358-3.289-.62-4.906-1.032-2.066-.526-4.169-.914-6.216-1.517a33.619 33.619 0 0 1-4.878-1.568 9.68 9.68 0 0 0-1.944-.661 26.2 26.2 0 0 1-3.07-.912c-1.21-.436-2.433-.83-3.653-1.234-.69-.23-1.409-.393-2.077-.676a47.336 47.336 0 0 0-5.143-1.972 33.731 33.731 0 0 1-5.659-2.437c-.721-.365-1.427-.764-2.163-1.109s-1.48-.682-2.192-1.075a28.531 28.531 0 0 1-4.085-2.881 7.178 7.178 0 0 1-2.1-2.384 1.779 1.779 0 0 1 .6-2.364 3.459 3.459 0 0 1 .933-.393 10.692 10.692 0 0 0 1.127-.236 12.515 12.515 0 0 1 3.628-.736c1.192-.112 2.384-.264 3.576-.35a28.724 28.724 0 0 1 3.845-.221 23.339 23.339 0 0 0 3.714-.039 6.651 6.651 0 0 1 .9 0c.9.036 1.791.079 2.675.12a3.6 3.6 0 0 0 1.02-1.517 8.188 8.188 0 0 0-1.283-.264 328.791 328.791 0 0 0-6.037-.182 30 30 0 0 0-4.979.328c-1.477.215-2.986.247-4.443.545a43.829 43.829 0 0 0-5.479 1.253 20.851 20.851 0 0 1-2.223.626 2.649 2.649 0 0 0-1.156.513 1.644 1.644 0 0 1-.543.337 2.623 2.623 0 0 0-1.6 1.721 2.032 2.032 0 0 0 .163 2.075c.258.393.53.777.764 1.182a7.62 7.62 0 0 0 2.384 2.639 21.118 21.118 0 0 0 3.615 2.431 24.881 24.881 0 0 0 3.019 1.905c.5.324 1.068.549 1.547.9a2.8 2.8 0 0 0 1.438.76.837.837 0 0 1 .425.268 3.983 3.983 0 0 0 .991.575 42.087 42.087 0 0 1 4.275 2.083 3.015 3.015 0 0 0 .346.167c1.113.517 2.373.742 3.293 1.654a1.053 1.053 0 0 0 .468.2c.374.1.751.178 1.127.264a7.276 7.276 0 0 1 2.439.762 6.048 6.048 0 0 0 2.019.781 8.94 8.94 0 0 1 3.221 1.21 2.478 2.478 0 0 0 .952.358 7.489 7.489 0 0 1 2.523.916 4.269 4.269 0 0 0 1.2.433c1.459.354 2.922.689 4.372 1.073 2.115.558 4.214 1.176 6.331 1.727 2.905.757 5.829 1.435 8.726 2.227 2.027.556 4.1.86 6.151 1.285.963.2 1.927.41 2.895.6.8.157 1.592.328 2.394.423a4.836 4.836 0 0 1 2.229.448.832.832 0 0 0 .425.067 1.54 1.54 0 0 1 .2 0 3.163 3.163 0 0 1 .762.071c1.181.414 2.438.446 3.635.766a3.174 3.174 0 0 0 .635.088c.982.052 1.97.075 2.95.148.6.043 1.2.021 1.787.077.624.058 1.233.251 1.875.313a26.659 26.659 0 0 1 2.626.545 4.756 4.756 0 0 0 .887.1c.152 0 .307-.013.461-.028a3.612 3.612 0 0 1 .549-.024 8.238 8.238 0 0 1 1.011.172 5.07 5.07 0 0 0 1.781.127 1.053 1.053 0 0 1 .626.075 1.815 1.815 0 0 0 1.129.116 1.192 1.192 0 0 1 .149-.009 3.767 3.767 0 0 1 .477.06zm15.9-5.286a18.869 18.869 0 0 0 5.606-.444 12.1 12.1 0 0 0 3.813-1.468.92.92 0 0 0 .508-.822 2.679 2.679 0 0 0-.185-1.129 8.651 8.651 0 0 0-2.155-2.989 13.116 13.116 0 0 0-1.977-1.407c-1.056-.562-2.055-1.231-3.1-1.813a48.565 48.565 0 0 0-5.575-2.628c-1.35-.543-2.733-1-4.109-1.485a1.056 1.056 0 0 0-.409-.028c-.068 0-.142.006-.217.006a12.682 12.682 0 0 0-.1 1.734 8.491 8.491 0 0 1-.066 1.789 11.241 11.241 0 0 0-.077 1.148 39.69 39.69 0 0 0-.034 1.54c0 .895-.262 1.755-.247 2.667a14.619 14.619 0 0 1-.487 2.9c-.12.618-.262 1.234-.407 1.924.3.047.543.1.785.122.423.032.85.039 1.272.064 1.493.09 2.976.307 4.473.311.322 0 .644 0 .966-.009.278 0 .558-.008.837-.008.294.007.59.012.886.026zm-45.86-48.107c-1.532.088-3.049.393-4.576.539-.607.058-1.14.369-1.728.414a32.355 32.355 0 0 0-4.5.972 5.071 5.071 0 0 0-.611.2 15 15 0 0 1-3.257 1.109 1.336 1.336 0 0 0-.6.23 3.711 3.711 0 0 1-1.939.888c-1.264.71-2.651 1.163-3.9 1.905a14.233 14.233 0 0 1-1.418.862 12.63 12.63 0 0 0-2.369 1.515 18.8 18.8 0 0 0-3.63 3.8 18.031 18.031 0 0 1-1.542 1.873c-.148.15-.272.326-.406.491-.5.62-.772 1.414-1.463 1.888a6.838 6.838 0 0 1-.927 1.373c-.181.275-.2.659-.38.938a16.58 16.58 0 0 0-1.855 4.051c-.582 1.8-.955 3.643-1.436 5.462-.176.663-.317 1.334-.468 2-.064.292-.116.59-.154.886a.536.536 0 0 0 .356.614 56.5 56.5 0 0 0 2.053.751c1.013.343 2.036.659 3.053 1a13.971 13.971 0 0 1 1.8.65 6.993 6.993 0 0 0 1.7.575 14.819 14.819 0 0 1 2.929.944 28.964 28.964 0 0 0 2.926.95c.041.013.075.039.116.054.285.1.564.208.854.281q3.312.827 6.621 1.639c4.252 1.049 8.5 2.1 12.755 3.137.873.212 1.771.311 2.653.487 1.387.279 2.764.594 4.151.86a21.329 21.329 0 0 1 2.776.47c.987.333 2.013.408 3.006.672a30.836 30.836 0 0 0 5.078.708 14.543 14.543 0 0 1 2.041.2c1 .242 2.012.348 3.008.566a10.327 10.327 0 0 0 1.515.287c2 .133 3.976.468 5.958.717 1.694.215 3.394.345 5.095.487.55.045 1.105.041 1.633.058a2.411 2.411 0 0 0 .595-1.3c.165-1.963.768-3.875.646-5.868a.516.516 0 0 1 0-.129 39.227 39.227 0 0 0 .346-4.591 16.242 16.242 0 0 0-.026-3.579 19.179 19.179 0 0 1-.165-2.038 4.853 4.853 0 0 0-.4-2 3.892 3.892 0 0 1-.221-.858c-.095-.416-.156-.841-.281-1.249a10.931 10.931 0 0 1-.712-2.705 1.023 1.023 0 0 0-.082-.375c-.452-1.017-.866-2.047-1.282-3.079a29.274 29.274 0 0 0-1.745-3.439 21.25 21.25 0 0 0-1.379-2.008c-.256-.35-.513-.307-.809.086-.365.478-.722.961-1.105 1.422a1.986 1.986 0 0 1-.579.491c-.68.354-1.364.708-2.074 1a4.033 4.033 0 0 1-2.766.176c-.367-.116-.749-.189-1.122-.281a11.021 11.021 0 0 1-5.27-3.049 5.2 5.2 0 0 1-1.519-4.231 6.287 6.287 0 0 1 2.186-4.211c.408-.356.83-.693 1.292-1.075-.751-.382-1.484-.723-2.188-1.12a34.053 34.053 0 0 0-6.619-2.718 10.863 10.863 0 0 0-1.852-.451c-1.015-.137-2.046-.144-3.062-.292a13.84 13.84 0 0 0-2-.131c-.908-.016-1.818.048-2.724.1zm-39.564 18.783c-1.281.017-2.56.107-3.841.163a55.621 55.621 0 0 0-7 .781 12.61 12.61 0 0 0-2.219.6 2.04 2.04 0 0 0-1.192 1.081.919.919 0 0 0 .07 1.075 13.038 13.038 0 0 0 2.1 2.236 29.767 29.767 0 0 0 3.624 2.178c1.04.583 2.132 1.073 3.2 1.6 1.1.545 2.207 1.09 3.353 1.547.794.318 1.573.667 2.364.989a.6.6 0 0 0 .7-.118 25.773 25.773 0 0 0 .729-2.587c.115-.453.152-.927.264-1.382a14.63 14.63 0 0 0 .731-3.637 1.512 1.512 0 0 1 .09-.5 11.968 11.968 0 0 1 1.764-3.735 6.61 6.61 0 0 0-1.029-.212c-1.06-.037-2.118-.077-3.178-.077q-.262-.004-.53-.001zm58.92-13.126a3.99 3.99 0 0 0-2.051 1.661 13.6 13.6 0 0 0-1.051 2.611 3.009 3.009 0 0 0 .21 2.248 5.834 5.834 0 0 0 2.3 2.371 24.092 24.092 0 0 0 3.63 1.59 9.535 9.535 0 0 0 2.013.309.516.516 0 0 0 .253-.039c.742-.311 1.5-.6 2.216-.959a5.1 5.1 0 0 0 1.731-2.019.679.679 0 0 0-.107-.837q-1.38-1.683-2.768-3.368a1.619 1.619 0 0 0-.291-.249 34.363 34.363 0 0 0-5.4-3.527 5.933 5.933 0 0 0-.685.21zm-43.5 25.737a2.589 2.589 0 0 1-.986-1.989.952.952 0 0 1 .3-.68 7.99 7.99 0 0 1 1.369-1.148 2.062 2.062 0 0 1 2.692.693 4.6 4.6 0 0 0 .281.427 2.116 2.116 0 0 1 .348 1.942 1.2 1.2 0 0 1-1.165 1.161c-.386.022-.774.063-1.159.063a2.781 2.781 0 0 1-1.683-.468zm1.137-2.862a7.771 7.771 0 0 1-.658.6.579.579 0 0 0-.12.7.991.991 0 0 0 .828.7 1.9 1.9 0 0 0 1.459-.341c0-.307.017-.6.007-.895a1.259 1.259 0 0 0-.093-.369.953.953 0 0 0-.867-.653.707.707 0 0 0-.559.259zm47.985-.856a2.387 2.387 0 0 0-.279-.429 1.683 1.683 0 0 1-.113-2.04 10.724 10.724 0 0 1 1.206-1.65c.146-.174.446-.219.725-.348a9.216 9.216 0 0 0 .957.605 1.972 1.972 0 0 1 .987 2.274 3.9 3.9 0 0 1-.4 1.208 1.967 1.967 0 0 1-1.791 1.056c-.045 0-.089.005-.133.005a1.254 1.254 0 0 1-1.162-.68zm1.294-3.173c-.221.386-.425.755-.638 1.118a.669.669 0 0 0 .063.822c.154.193.322.375.47.547a1.032 1.032 0 0 0 1.03-.983 4.511 4.511 0 0 0 0-.882c-.034-.442-.3-.625-.812-.625zm-36.161 3.4c-.683-.043-1.36-.163-2.007-.245a7.216 7.216 0 0 1-2.2-.785 11.2 11.2 0 0 0-1.251-.65 2 2 0 0 1-.769-.656 6.433 6.433 0 0 0-1.128-1.214 4.269 4.269 0 0 1-1.384-2.115 1.568 1.568 0 0 0-.127-.363 5.921 5.921 0 0 1-.519-3.25.5.5 0 0 1 .019-.249 15.5 15.5 0 0 0 .715-2.315 7.343 7.343 0 0 1 .755-1.324 22.413 22.413 0 0 0 1.76-2.645 3.458 3.458 0 0 1 .646-.794c.294-.309.6-.6.923-.882a2.6 2.6 0 0 1 1.718-.757c1.5-.013 2.987-.182 4.486-.049a19.6 19.6 0 0 1 2.911.395 7.264 7.264 0 0 1 2.427 1.1 2.282 2.282 0 0 1 .442.457 8.032 8.032 0 0 1 1.825 4.829c.03.727.109 1.45.142 2.178a2.31 2.31 0 0 1-.283 1.6 9.493 9.493 0 0 1-.8 2.287 5.261 5.261 0 0 1-1.68 2.225 17.881 17.881 0 0 1-4.25 2.819 4.461 4.461 0 0 1-1.957.408q-.21.014-.417.001zm-.468-1.38a2.6 2.6 0 0 0 1.094.064 6.982 6.982 0 0 0 2.491-.98c.888-.6 1.764-1.219 2.677-1.774a2.582 2.582 0 0 0 1.3-1.8 6.093 6.093 0 0 1 .648-1.8 5.363 5.363 0 0 0 .656-3.594 2.566 2.566 0 0 1-.032-.513 5.081 5.081 0 0 0-1.266-3.285 3.688 3.688 0 0 0-2.474-1.491 37.65 37.65 0 0 0-3.836-.26c-.346-.009-.689 0-1.032.011a9.447 9.447 0 0 1-2.407-.144 1.075 1.075 0 0 0-1.066.285 11.749 11.749 0 0 0-1.3 1.416c-.687.974-1.3 2-1.946 3.006-.825 1.285-1.5 2.6-1.021 4.207a.516.516 0 0 1 0 .129 4.038 4.038 0 0 0 .954 2.585 6.75 6.75 0 0 1 .783 1.165 2.351 2.351 0 0 0 1.181 1.135c.35.159.665.39 1.01.558a8.079 8.079 0 0 0 2.764.98h.081a3.646 3.646 0 0 1 .738.106zm21.2-19.384a3.037 3.037 0 0 1-1.605-.742 1.767 1.767 0 0 1 .511-2.879c.191-.094.395-.161.573-.232.154.026.281.049.407.064a1.99 1.99 0 0 1 1.736 1.472 1.743 1.743 0 0 1-1.369 2.313.685.685 0 0 1-.14.014.624.624 0 0 1-.115-.006zm-.423-2.656a.661.661 0 0 0-.3.762.56.56 0 0 0 .417.451c.1 0 .231.006.354 0 .29-.026.5-.277.384-.508a3.112 3.112 0 0 0-.508-.682.264.264 0 0 0-.177-.049.461.461 0 0 0-.171.032z" transform="rotate(8 -1213.126 71682.013)" style="fill:#22a9f8;stroke:#22a9f8;opacity:.2"/>
    </g>
</svg>
