<svg xmlns="http://www.w3.org/2000/svg" width="180" height="64">
    <defs>
        <style>
            .cls-1{isolation:isolate}.cls-7{fill:#fff}
        </style>
    </defs>
    <g id="Group_59488" data-name="Group 59488" class="cls-1" transform="translate(90 -819)">
        <rect id="Rectangle_8512" data-name="Rectangle 8512" width="180" height="64" rx="8" transform="translate(-90 819)" style="fill:#07074e"/>
        <g id="Group_56014" data-name="Group 56014" class="cls-1" transform="translate(-253.056 264.918)">
            <g id="Group_56015" data-name="Group 56015" class="cls-1" transform="translate(175.056 569.082)">
                <g id="Group_56016" data-name="Group 56016">
                    <path id="Path_50770" data-name="Path 50770" d="M13.9 9.8a2.593 2.593 0 0 0-.628 1.859v29.235a2.593 2.593 0 0 0 .628 1.859l.1.089 16.781-16.374v-.387L14 9.706z" transform="translate(-13.277 -9.277)" style="fill:#00d2ff"/>
                    <path id="Path_50771" data-name="Path 50771" d="m36.078 31.748-5.587-5.461V25.9l5.593-5.461.125.071 6.624 3.68c1.89 1.044 1.89 2.763 0 3.814l-6.623 3.673z" transform="translate(-12.987 -9.096)" style="fill:#ffbd00"/>
                    <path id="Path_50772" data-name="Path 50772" d="M36.489 31.583 30.771 26 13.894 42.479a2.246 2.246 0 0 0 2.816.078z" transform="translate(-13.266 -9.003)" style="fill:#ff3a44"/>
                    <path id="Path_50773" data-name="Path 50773" d="M36.489 20.7 16.71 9.725a2.254 2.254 0 0 0-2.816.084l16.877 16.472z" transform="translate(-13.266 -9.284)" style="fill:#06e775"/>
                </g>
            </g>
            <path id="Path_50795" data-name="Path 50795" class="cls-7" d="m6.432 0-.684-1.884h-3.78L1.284 0H.1l3.128-8.4h1.26L7.62 0zm-4.08-2.928h3.012l-1.512-4.14zM14.028-8.4h1.116V0h-.9l-4.32-6.276V0H8.808v-8.4h.9l4.32 6.264zm6.384 0a3.729 3.729 0 0 1 2.85 1.218A4.214 4.214 0 0 1 24.4-4.2a4.214 4.214 0 0 1-1.134 2.982A3.729 3.729 0 0 1 20.412 0h-3.276v-8.4zm0 7.344a2.706 2.706 0 0 0 2.1-.9 3.216 3.216 0 0 0 .816-2.244 3.216 3.216 0 0 0-.816-2.244 2.706 2.706 0 0 0-2.1-.9h-2.16v6.288zM30.924 0 29.04-3.216h-1.98V0h-1.116v-8.4H29.3a2.529 2.529 0 0 1 1.848.762A2.5 2.5 0 0 1 31.92-5.8a2.481 2.481 0 0 1-.486 1.488 2.6 2.6 0 0 1-1.254.948L32.16 0zM27.06-7.356v3.132h2.24a1.409 1.409 0 0 0 1.062-.462A1.556 1.556 0 0 0 30.8-5.8a1.535 1.535 0 0 0-.438-1.1 1.418 1.418 0 0 0-1.062-.456zm13.356 6.24A4.174 4.174 0 0 1 37.332.156a4.174 4.174 0 0 1-3.084-1.272 4.22 4.22 0 0 1-1.26-3.084 4.214 4.214 0 0 1 1.26-3.09 4.184 4.184 0 0 1 3.084-1.266 4.2 4.2 0 0 1 3.09 1.266 4.2 4.2 0 0 1 1.266 3.09 4.2 4.2 0 0 1-1.272 3.084zm-5.4-.756a3.146 3.146 0 0 0 2.316.936 3.116 3.116 0 0 0 2.31-.942 3.176 3.176 0 0 0 .93-2.322 3.191 3.191 0 0 0-.93-2.334 3.116 3.116 0 0 0-2.31-.942 3.116 3.116 0 0 0-2.31.942 3.191 3.191 0 0 0-.93 2.334 3.207 3.207 0 0 0 .924 2.328zM43.224-8.4h1.116V0h-1.116zm6.384 0a3.729 3.729 0 0 1 2.85 1.218A4.214 4.214 0 0 1 53.592-4.2a4.214 4.214 0 0 1-1.134 2.982A3.729 3.729 0 0 1 49.608 0h-3.276v-8.4zm0 7.344a2.706 2.706 0 0 0 2.1-.9 3.216 3.216 0 0 0 .816-2.244 3.216 3.216 0 0 0-.816-2.244 2.706 2.706 0 0 0-2.1-.9h-2.16v6.288zM63.864 0l-.684-1.884H59.4L58.716 0h-1.188l3.132-8.4h1.26L65.052 0zm-4.08-2.928H62.8l-1.512-4.14zm9.5-5.472a2.629 2.629 0 0 1 1.938.774A2.614 2.614 0 0 1 72-5.7a2.62 2.62 0 0 1-.774 1.92 2.618 2.618 0 0 1-1.938.78h-1.932v3H66.24v-8.4zm0 4.356a1.531 1.531 0 0 0 1.152-.474A1.638 1.638 0 0 0 70.9-5.7a1.632 1.632 0 0 0-.456-1.188 1.541 1.541 0 0 0-1.152-.468h-1.936v3.312zM76.56-8.4a2.629 2.629 0 0 1 1.938.774 2.614 2.614 0 0 1 .774 1.926 2.62 2.62 0 0 1-.772 1.92 2.618 2.618 0 0 1-1.94.78h-1.932v3h-1.116v-8.4zm0 4.356a1.531 1.531 0 0 0 1.152-.474 1.638 1.638 0 0 0 .456-1.182 1.632 1.632 0 0 0-.456-1.188 1.541 1.541 0 0 0-1.152-.468h-1.932v3.312zm14.4 2.928A4.174 4.174 0 0 1 87.876.156a4.174 4.174 0 0 1-3.084-1.272 4.22 4.22 0 0 1-1.26-3.084 4.214 4.214 0 0 1 1.26-3.09 4.184 4.184 0 0 1 3.084-1.266 4.2 4.2 0 0 1 3.09 1.266 4.2 4.2 0 0 1 1.266 3.09 4.2 4.2 0 0 1-1.272 3.084zm-5.4-.756a3.146 3.146 0 0 0 2.316.936 3.116 3.116 0 0 0 2.31-.942 3.176 3.176 0 0 0 .93-2.322 3.191 3.191 0 0 0-.93-2.334 3.116 3.116 0 0 0-2.31-.942 3.116 3.116 0 0 0-2.31.942 3.191 3.191 0 0 0-.93 2.334 3.207 3.207 0 0 0 .924 2.328zM98.988-8.4h1.112V0h-.9l-4.32-6.276V0h-1.112v-8.4h.9l4.32 6.264z" transform="translate(218.96 575.638)"/>
            <path id="Path_50796" data-name="Path 50796" class="cls-7" d="M90.439 28.239a5.5 5.5 0 1 0 5.644 5.495 5.479 5.479 0 0 0-5.644-5.495zm0 8.824a3.334 3.334 0 1 1 3.174-3.329 3.208 3.208 0 0 1-3.174 3.33zm-12.3-8.824a5.5 5.5 0 1 0 5.638 5.495 5.475 5.475 0 0 0-5.639-5.495zm0 8.824a3.334 3.334 0 1 1 3.167-3.329 3.212 3.212 0 0 1-3.168 3.33zM63.5 29.924v2.335h5.7a4.8 4.8 0 0 1-1.3 2.932 5.926 5.926 0 0 1-4.406 1.7 6.2 6.2 0 1 1 0-12.4 6.12 6.12 0 0 1 4.3 1.665l1.683-1.645A8.417 8.417 0 0 0 63.5 22.16a8.755 8.755 0 0 0-8.856 8.534 8.755 8.755 0 0 0 8.856 8.533 8.07 8.07 0 0 0 6.09-2.4 8.243 8.243 0 0 0 1.935-6.908zm59.855 1.81a5.2 5.2 0 0 0-4.812-3.494 5.276 5.276 0 0 0-5.3 5.495 5.436 5.436 0 0 0 5.573 5.493 5.6 5.6 0 0 0 4.684-2.435l-1.916-1.248a3.228 3.228 0 0 1-2.768 1.519A2.864 2.864 0 0 1 116.1 35.4l7.516-3.04zm-7.662 1.829a3.045 3.045 0 0 1 2.935-3.2 2.192 2.192 0 0 1 2.09 1.166zm-6.108 5.33h2.47V22.746h-2.47zm-4.046-9.43h-.082a3.935 3.935 0 0 0-2.955-1.224 5.5 5.5 0 0 0 0 10.988 3.877 3.877 0 0 0 2.955-1.248h.082v.788c0 2.1-1.148 3.229-3 3.229a3.113 3.113 0 0 1-2.832-1.962l-2.148.877a5.359 5.359 0 0 0 4.98 3.249c2.9 0 5.341-1.666 5.341-5.721v-9.865h-2.342zm-2.826 7.6a3.337 3.337 0 0 1 0-6.661 3.123 3.123 0 0 1 3 3.349 3.1 3.1 0 0 1-2.999 3.313zm32.208-14.317h-5.908v16.147h2.464v-6.118h3.445a5.185 5.185 0 0 0 5.42-5.015 5.189 5.189 0 0 0-5.421-5.014zm.064 7.783h-3.509v-5.537h3.509a2.771 2.771 0 1 1 0 5.537zm15.23-2.32a4.64 4.64 0 0 0-4.392 2.472l2.187.9a2.686 2.686 0 0 1 4.845.89v.17a5.508 5.508 0 0 0-2.575-.625c-2.354 0-4.753 1.267-4.753 3.633 0 2.164 1.929 3.557 4.1 3.557a3.506 3.506 0 0 0 3.147-1.582h.084v1.248h2.38v-6.199c-.003-2.862-2.19-4.464-5.023-4.464zm-.3 8.848c-.806 0-1.929-.391-1.929-1.368 0-1.25 1.4-1.729 2.612-1.729a4.5 4.5 0 0 1 2.252.543 2.969 2.969 0 0 1-2.931 2.554zm13.985-8.495-2.832 7h-.084l-2.928-7H155.4l4.4 9.782-2.51 5.443h2.575l6.778-15.225zm-22.205 10.331h2.47V22.746h-2.47z" transform="translate(164.411 560.922)"/>
        </g>
    </g>
</svg>
