<svg id="Group_59375" data-name="Group 59375" xmlns="http://www.w3.org/2000/svg" width="80" height="80">
    <defs>
        <clipPath id="clip-path">
            <path id="Rectangle_7693" data-name="Rectangle 7693" class="cls-1" d="M0 0h80v80H0z"/>
        </clipPath>
        <style>
            .cls-1{fill:#697fe2}
        </style>
    </defs>
    <g id="Group_56681" data-name="Group 56681" style="clip-path:url(#clip-path)">
        <g id="noun_Partner_1238858" transform="translate(6.257 16.052)">
            <path id="Path_153504" data-name="Path 153504" class="cls-1" d="M53.292 27.747a5.081 5.081 0 0 1 2.914.852l5.769 5.285a63.315 63.315 0 0 1 5.008 4.1l5.24 4.87 9.238-10.707L67.1 18.406 63.647 21.8a10.953 10.953 0 0 1-1.959-.652l-5.415-2.634a5.324 5.324 0 0 0-2.3-.476 5.838 5.838 0 0 0-3.27.926l-8.377 5.876a3.163 3.163 0 0 0-.716 4.477l.5.671a3.632 3.632 0 0 0 2.91 1.42 3.482 3.482 0 0 0 1.8-.49l3.98-2.539a4.881 4.881 0 0 1 2.492-.632z" transform="translate(-14.019 -18.037)"/>
            <path id="Path_153505" data-name="Path 153505" class="cls-1" d="m35.442 63.737-.608-.577a3.252 3.252 0 0 0-4.585.109l-.01-.017a3.253 3.253 0 0 0-.109-4.585l-.606-.578A3.209 3.209 0 0 0 27.3 57.2a3.255 3.255 0 0 0-2.242.891l1.215-1.274a3.25 3.25 0 0 0-.109-4.585l-.6-.578a3.251 3.251 0 0 0-4.524.055 3.243 3.243 0 0 0-.3-4.337l-.6-.575a3.255 3.255 0 0 0-4.587.109l-6.099 6.387a3.249 3.249 0 0 0 .111 4.585l.6.576a3.2 3.2 0 0 0 2.218.885 3.27 3.27 0 0 0 2.069-.737l-1.6 1.682a3.256 3.256 0 0 0 .109 4.586l.608.577a3.252 3.252 0 0 0 4.585-.109l1.253-1.314a3.245 3.245 0 0 0 .21 4.456l.608.578a3.252 3.252 0 0 0 4.585-.11l2.014-2.082a3.252 3.252 0 0 0 .109 4.586l.606.577a3.252 3.252 0 0 0 4.585-.109l3.43-3.6a3.256 3.256 0 0 0-.112-4.583z" transform="translate(-5.889 -25.025)"/>
            <g id="Group_59438" data-name="Group 59438" transform="translate(0 .125)">
                <path id="Path_153506" data-name="Path 153506" class="cls-1" d="m63.1 45.956-8.193-7.611c-1.111-.94-2.374-1.947-3.276-2.6l-.107-.077-.1-.089-5.649-5.174a3.023 3.023 0 0 0-1.516-.372 2.737 2.737 0 0 0-1.316.3l-3.945 2.518-.024.015-.024.015A5.729 5.729 0 0 1 36 33.7a5.877 5.877 0 0 1-4.716-2.328l-.5-.671a5.411 5.411 0 0 1 1.231-7.656l3.313-2.325a7.819 7.819 0 0 0-5.607-.048s-1.77.777-2.336 1.017a9.529 9.529 0 0 1-3.161.551L19.9 18.2 5 33l6.728 6.767 1.3-1.366a5.5 5.5 0 0 1 7.766-.184l.6.575a5.45 5.45 0 0 1 1.574 2.8 5.452 5.452 0 0 1 3.253 1.487l.6.574a5.45 5.45 0 0 1 1.7 3.844 5.656 5.656 0 0 1-.051.9 5.475 5.475 0 0 1 1.714 1.109l.6.577a5.463 5.463 0 0 1 1.618 3.025 5.45 5.45 0 0 1 3.083 1.466l.611.581a5.5 5.5 0 0 1 1.027 6.6l1.661 1.546a3.251 3.251 0 0 0 4.583-.167l.568-.612a3.237 3.237 0 0 0-.1-4.5l4.2 3.9a3.255 3.255 0 0 0 4.586-.172l.568-.61a3.25 3.25 0 0 0-.15-4.561l1.08 1.005a3.252 3.252 0 0 0 4.583-.17l.569-.611a3.255 3.255 0 0 0-.169-4.585l-.913-.847a3.247 3.247 0 0 0 4.508-.226l.571-.612a3.256 3.256 0 0 0-.168-4.577z" transform="translate(-4.994 -18.204)"/>
            </g>
        </g>
    </g>
</svg>
