<svg xmlns="http://www.w3.org/2000/svg" width="310.839" height="194.966">
    <defs>
        <style>
            .cls-2{fill:#fcaf0e}.cls-3{fill:#07074e}.cls-4{fill:#fff}.cls-5{fill:#c4f5e2}.cls-9{fill:#3fc0ac}.cls-10{fill:#f2f4df}.cls-11{fill:#fad631}.cls-12{fill:#f98e4e}.cls-13{fill:#2db9a5}.cls-14{fill:#4fc6b2}
        </style>
    </defs>
    <g id="Group_55081" data-name="Group 55081" style="opacity:.8">
        <path id="Path_131739" data-name="Path 131739" class="cls-2" d="M5093.628 2294.163c-50.84 3.847-102.434-8.928-153.941-8.928-.662 0-8.792-3.26-9.452-3.261.627-1.46 7.618-9.97 7.6-11.544-.035-5.467-.015-10.935-.011-16.4 0-.437.036-.874.058-1.312a4.153 4.153 0 0 0 1.8-.314c3.263-1.074 6.534-2.125 9.762-3.3 4.536-1.643 9.036-3.365 13.443-5.308 3.213-1.417 6.363-2.986 9.541-4.48a3.65 3.65 0 0 1 1.245-.5c.018.437.047.875.048 1.312 0 4.03-.057 8.06.019 12.088a7.643 7.643 0 0 0 11.381 6.478 6.151 6.151 0 0 0 3.688-5.765c-.062-7.221-.021-14.441-.018-21.661 0-.437.037-.875.059-1.312.457.062.762-.226 1.1-.444 2.4-1.524 4.794-3.058 7.2-4.562 4.894-3.053 9.729-6.195 14.757-9.042 1.412-.8 2.895-1.5 4.347-2.242a49.539 49.539 0 0 1-.348 9.036c-.475.134-.873.242-1.263.354a19.035 19.035 0 0 0-5.466 2.453 10.475 10.475 0 0 0-4.693 6.093 4.687 4.687 0 0 0 5.312 6.019 6.276 6.276 0 0 0 3.832-2.238 15.35 15.35 0 0 0 3.349-6.593c.385-1.417.691-2.854 1.038-4.3.635-.089 1.241-.2 1.854-.253a48 48 0 0 1 13.022.838 91.486 91.486 0 0 1 9.888 2.55c.985.307 1.489.129 1.743-.54.242-.642-.1-1.118-1.049-1.45-.116-.041-.233-.083-.348-.12-2.625-.822-5.268-1.564-7.962-2.145a50.343 50.343 0 0 0-16.557-1.1 1.376 1.376 0 0 1-.415-.125 36.6 36.6 0 0 0 .308-5.367c.026-1.436.03-2.871.047-4.306 1.745-.7 3.475-1.417 5.229-2.083a61.149 61.149 0 0 1 10.622-2.936c2.445-.452 4.929-.685 7.395-1.01a84.97 84.97 0 0 0 11.78-2.224 2.793 2.793 0 0 1 .845-.121 4.153 4.153 0 0 1 .084 1.422q.01 19.029.013 38.06a2.458 2.458 0 0 0 .2 1.486h22.8v12.982h8.242v9.588h7.86zm-58.679-36.225c.231-.643-.08-1.266.24-1.833a14.54 14.54 0 0 0 1.855-.131 5.24 5.24 0 0 0-.044-1.873c-.647-.232-1.289.032-1.872-.2-.243-.7.1-1.446-.224-2.126a7.178 7.178 0 0 0-2.042.062v2.111l-2.268.109a5.179 5.179 0 0 0 .078 2.033h2.084c.262.632-.014 1.253.187 1.767a.717.717 0 0 0 .617.178 4.365 4.365 0 0 0 1.389-.097z" transform="translate(-4883.978 -2103.118)"/>
        <path id="Path_131740" data-name="Path 131740" class="cls-3" d="M6705.947 1754.411c-.009.489.014.979.046 1.468.533-.564.522-.948-.046-1.468z" transform="translate(-6433.307 -1707.355)"/>
        <path id="Path_131741" data-name="Path 131741" class="cls-3" d="M6457.509 1725.508a1.686 1.686 0 0 1 .019-.358h-7.587c.353.375.705.752 1.063 1.121s.715.708 1.061 1.072h6.438a2.347 2.347 0 0 1-.994-1.835z" transform="translate(-6208.993 -1681.602)"/>
        <path id="Path_131742" data-name="Path 131742" class="cls-3" d="M6019.231 1848.5h-6.15v-8.68c-.449-.294-.983-.049-1.3-.624-.518-.933-1.369-.826-1.965.115-.062.1-.113.2-.168.292h-4.789v-9.242c-.378-.353-.727-.236-1.042-.252-.713-.033-1.425.138-1.971-.624-.331-.462-.994-.338-1.48.225a1.092 1.092 0 0 1-.944.4c-1.979 0-3.956-.009-5.937 0a1.229 1.229 0 0 1-1.048-.448.984.984 0 0 0-1.668.039 1.257 1.257 0 0 1-1.068.408c-1.94-.007-3.875.005-5.815-.007a1.817 1.817 0 0 1-1.184-.468 2.515 2.515 0 0 1-.41.323 2.332 2.332 0 0 1-2.455-.082v83h-96.966V1839l-2.315 1.318V1872.844c0 .435-.044.872-.067 1.308a4.115 4.115 0 0 1 .083 1.425q.01 19.029.009 38.058a2.51 2.51 0 0 0 .205 1.488h22.8v12.982h8.239v9.587h7.863c0 2.518.081 4.939-.046 7.362.138.456-.057.968.294 1.457h100.938V1848.7c-.574-.27-1.13-.063-1.643-.2zm-37.047 29.92a27.019 27.019 0 0 1 6.548.034v14.765h-6.548zm-76.394 47.8v-4.164l8.878-.012h71.354v-26.43a11.7 11.7 0 0 1 3.029-.153c1.631-.033 1.923-.294 1.923-1.909v-15.571c0-1.555-.331-1.861-1.975-1.87-.937-.006-1.873 0-2.867 0V1861.1h16.568c.276.846.41 62.164.142 65.065-.857.224-95.258.304-97.051.06zm8.4 9.556a46.716 46.716 0 0 1-.046-7.657c4.99-.012 10.007 0 15.02-.007h75.652v-57.462h6.192v65.082c-.945.217-95.508.254-96.819.05zm104.757 8.816c-.84.24-95.242.317-96.979.065v-6.982h91.015v-58.089a12.933 12.933 0 0 1 3-.139c.942-.024 1.886 0 2.808 0 .278.981.409 62.1.155 65.153z" transform="translate(-5710.028 -1773.182)"/>
        <path id="Path_131743" data-name="Path 131743" class="cls-3" d="M6203.107 1724.672h-.589c-.492 0-.984-.042-1.479-.063-.447.018-.9.052-1.354.052h-11.257l-3.869 2.2h14.665q1.944-1.091 3.883-2.189z" transform="translate(-5976.465 -1681.126)"/>
        <path id="Path_131744" data-name="Path 131744" class="cls-3" d="M4628.92 1488.8c-.021.437-.056.874-.056 1.311 0 7.221-.045 14.442.02 21.663a6.162 6.162 0 0 1-3.69 5.764 7.646 7.646 0 0 1-11.383-6.478c-.074-4.028-.012-8.058-.019-12.087 0-.437-.03-.875-.048-1.313.018-.238.048-.476.048-.714v-26.457a1.527 1.527 0 0 0-.162-.943l-20.4 8.475c.162 3.557-1.1 6.315-4.361 7.805-3.61 1.649-6.8.713-9.485-2.106-.469.34-1.059.335-1.448.828v.675q-.015 12.75-.023 25.5c0 .279.03.556.045.835-.02.437-.059.875-.059 1.311 0 5.468-.023 10.936.013 16.4a11.1 11.1 0 0 1-.762 4.558 8.43 8.43 0 0 1-3.791 3.433 3.848 3.848 0 0 1-1.657.362 18.646 18.646 0 0 0-1.965 0c-2.741.2-4.548-1.211-6.028-3.209-.144-.191-.273-.392-.406-.589a11.437 11.437 0 0 1-.766-4.917c.044-2.874.02-5.749.012-8.624-.006-1.4-.037-2.791-.056-4.187.016-.4.044-.8.044-1.194q-.008-15.928 0-31.856a2.088 2.088 0 0 0-.958-1.882q-8.978-6.764-17.907-13.587c-.349-.265-.7-.525-1.146-.857a2.943 2.943 0 0 0-.147 1.346q-.005 13.893 0 27.785a9.119 9.119 0 0 1-.638 3.868 7.8 7.8 0 0 1-8.15 4.395 7.569 7.569 0 0 1-6.446-5.956 10.351 10.351 0 0 1-.2-2.02q.007-54.371 0-108.742a7.554 7.554 0 0 1 6.24-7.7 7.669 7.669 0 0 1 9.071 6.264 16.432 16.432 0 0 1 .113 1.911q.011 7.185 0 14.371v1.31c.927-.08 34.093-12.772 35.479-13.566v-1.271c-.005-6.388.043-12.775-.031-19.161a7.705 7.705 0 0 1 15.377-.613c.035.437.028.877.028 1.316q.01 25.928.015 51.856v1.119c3.04.988 5.361 3 7.853 4.748q12.417 8.7 24.8 17.449a9.055 9.055 0 0 1 1.492 1.251 5.184 5.184 0 0 1 1.5 3.673q-.045 18.5-.015 37c.008.492.033.971.053 1.447zm-57.041-13.138a10.355 10.355 0 0 0 4.224-.939q16.105-6.7 32.219-13.36l15.655-6.49a4.332 4.332 0 0 0 2.633-2.528c.7-1.922.083-3.617-1.854-4.984q-14.435-10.19-28.886-20.363a12.257 12.257 0 0 0-3.385-1.69 11.8 11.8 0 0 0-8.071.542q-11.684 4.536-23.394 9.016c-7.952 3.058-15.912 6.1-23.857 9.171a3.883 3.883 0 0 0-1.211 6.8c.337.292.7.555 1.058.827l14.668 11.184 13.991 10.666a9.712 9.712 0 0 0 6.211 2.149zm5.917-69.493-35.327 13.645v19.824l35.327-13.561zm-35.39 11.338c.529-.188.874-.3 1.215-.433q16.162-6.233 32.32-12.472c2.674-1.032 5.364-2.033 8.016-3.109a5.222 5.222 0 0 0 .511-9.542 5.8 5.8 0 0 0-5.109-.089q-17.93 6.944-35.88 13.849a2.271 2.271 0 0 0-1.072.545zm-4.212 17.989a5.665 5.665 0 0 0 1.951-4.8q-.018-18.729-.012-37.458c0-.244.147-.569-.275-.729-.18.132-.37.278-.567.412-.588.4-1.164.719-1.239 1.594-.059.7-1.126.952-1.661.377a1.555 1.555 0 0 0-1.407-.474 7.344 7.344 0 0 1-2.133-.167c-.29.659-.754 1.1-1.527.876-.987-.287-.7-1.12-.691-1.778-.462-.322-.881-.611-1.432-.992v11.521q0 13.643-.007 27.286a5.74 5.74 0 0 0 1.024 3.381 1.123 1.123 0 0 0 1.206.594c.853-.114 1.005.063 1.33.9.054.144.1.291.155.433a4.156 4.156 0 0 0 3.02.085c.119-1.483.842-1.833 2.266-1.057zm-8.994 21.116v39.342c0 .319-.007.639 0 .958a5.338 5.338 0 0 0 4.226 5 5.49 5.49 0 0 0 5.94-2.475 6.456 6.456 0 0 0 .78-3.575c0-9.5-.05-19 .044-28.5.021-1.817-.344-3.169-2.078-4-.073-.035-.149-.068-.219-.1-1.522.335-1.822.1-1.931-1.548zm35.7 42.9a2.312 2.312 0 0 0-.13 1.148q-.009 14.655 0 29.308c0 .279-.008.559.011.837a5.393 5.393 0 0 0 5.494 4.945 5.334 5.334 0 0 0 5.4-5.394q.029-15.073 0-30.146c0-.211.127-.486-.18-.623-3.882 2.847-7.512 2.313-10.595-.07zm61.871-19.192a7.994 7.994 0 0 1-5.378 2 8.726 8.726 0 0 1-5.369-2.094v30.323c0 .319 0 .64.03.957a5.357 5.357 0 0 0 4.384 4.73 5.476 5.476 0 0 0 5.78-2.543 5.838 5.838 0 0 0 .729-3.222q-.007-14.482-.008-28.964a2.134 2.134 0 0 0-.17-1.182zm-46.583-91.011a7.012 7.012 0 0 1 1.9-.169 7.473 7.473 0 0 1 7.175 9.526 7.3 7.3 0 0 1-4.481 4.79c-1.549.617-3.112 1.208-4.684 1.817 0 2.907-.09 5.742.031 8.566a4.814 4.814 0 0 0 3.32 4.375 5.285 5.285 0 0 0 5.457-.745 5.642 5.642 0 0 0 2.1-4.878q-.033-18.491-.016-36.984c0-.247.156-.557-.171-.746-3.268 2.479-6.776 2.785-10.6.044-.16.956-.205 12.744-.033 14.409zm-45.571 2.963a5.281 5.281 0 1 0 .088-10.556 5.282 5.282 0 1 0-.088 10.556zm45.478-22.938a5.361 5.361 0 0 0 5.426 5.355 5.454 5.454 0 0 0 5.471-5.235 5.389 5.389 0 0 0-5.471-5.327 5.288 5.288 0 0 0-5.429 5.212zm1.558 113.479a5.426 5.426 0 0 0 6.3 1.067 5.252 5.252 0 0 0 3.032-4.948c-3.151 1.316-6.19 2.579-9.336 3.886z" transform="translate(-4524.045 -1361.96)"/>
        <path id="Path_131745" data-name="Path 131745" class="cls-2" d="M6321.1 1502.926h-6.148v-8.68c-.453-.294-.984-.049-1.307-.623-.521-.932-1.369-.825-1.966.115-.058.1-.113.2-.167.291h-4.792v-9.241c-.376-.352-.724-.236-1.037-.252-.714-.034-1.427.138-1.972-.624-.331-.463-.992-.338-1.481.224a1.089 1.089 0 0 1-.944.4c-1.978 0-3.957-.008-5.935 0a1.229 1.229 0 0 1-1.048-.449.991.991 0 0 0-1.675.04 1.237 1.237 0 0 1-1.065.409c-1.3-.005-2.595.068-3.894.067-1.273 0-1.909-.074-1.919-.074a33.459 33.459 0 0 0-4.867.091 4.106 4.106 0 0 1-1.291 0 4.763 4.763 0 0 1-1.056-.33 7.225 7.225 0 0 1-3.149-2.934 8.61 8.61 0 0 0 2.622-4.232 8.486 8.486 0 0 0-.521-5.643l6.5-.148a20.058 20.058 0 0 1-2.595 5.227c-10.123 14.519-36.869 10.624-38.039 10.439a52.734 52.734 0 0 1-18.353-6.6c10.422-9.282 15.05-14.1 17.326-16.8a58.7 58.7 0 0 1 4.983-5.275c1.741-1.63 3.607-3.121 5.5-4.57a69.31 69.31 0 0 1 9.053-5.728 4.391 4.391 0 0 1 1.576-.658 3 3 0 0 0 .356.733.986.986 0 0 0 1.184.323 1.031 1.031 0 0 0 .713-1.1 1.92 1.92 0 0 0-.327-.743c.174-.48.657-.58 1.055-.765a84.706 84.706 0 0 1 11.417-4.157 82.517 82.517 0 0 1 8.224-2.02c1.925-.371 3.85-.755 5.779-1.114a4.393 4.393 0 0 1 .862.005 3.164 3.164 0 0 0-.288.646.975.975 0 0 0 .629 1.161 1.023 1.023 0 0 0 1.229-.249.923.923 0 0 0 .1-1.3 4.251 4.251 0 0 0-.416-.428 7.251 7.251 0 0 1 2.491-.466 39.065 39.065 0 0 1 6.144-.565 2.817 2.817 0 0 0-.464.539 1.035 1.035 0 0 0 .365 1.36 1.069 1.069 0 0 0 1.431-.193.993.993 0 0 0-.03-1.4 2.708 2.708 0 0 0-.612-.375.781.781 0 0 1 .561-.2c1.107-.015 2.209-.142 3.308-.2 4.27-.217 8.54-.4 12.82-.281.992.027 1.1.142 1.128 1.135.01.319 0 .638 0 .957l.002 64.255zm-65.02-36.857a1.015 1.015 0 0 0-1.1-1.022 1.044 1.044 0 0 0-1.074 1.051 1.127 1.127 0 0 0 1.108 1.054 1.083 1.083 0 0 0 1.07-1.082zm56.637 19.7a1.044 1.044 0 0 0 1.085-1.042 1.1 1.1 0 0 0-1.1-1.05 1.053 1.053 0 0 0-1.071 1.059 1.022 1.022 0 0 0 1.09 1.035zm1.085-19.7a1.042 1.042 0 0 0-1.1-1.027 1.011 1.011 0 0 0-1.067 1.046 1.086 1.086 0 0 0 1.086 1.06 1.12 1.12 0 0 0 1.085-1.073zm-1.082 8.294a1.023 1.023 0 0 0-1.086 1.031 1.04 1.04 0 0 0 1.067 1.059 1.085 1.085 0 0 0 1.1-1.041 1.056 1.056 0 0 0-1.077-1.043zm-56.642-17.67a1.086 1.086 0 0 0-2.167.123 1.159 1.159 0 0 0 1.154 1.01 1.1 1.1 0 0 0 1.017-1.126zm57.724-9.3a1.085 1.085 0 0 0-2.168.064 1.109 1.109 0 0 0 1.111 1.04 1.135 1.135 0 0 0 1.061-1.097zm-38.483 9.323a1.02 1.02 0 0 0-1.121-1 1.081 1.081 0 0 0-1.071 1.069 1.2 1.2 0 0 0 1.146 1.039 1.11 1.11 0 0 0 1.049-1.101zm37.434-1a1.026 1.026 0 0 0-1.118 1 1.1 1.1 0 0 0 1.036 1.109 1.156 1.156 0 0 0 1.132-1.035 1.031 1.031 0 0 0-1.047-1.064zm-47.059 10.367a1.021 1.021 0 0 0-1.071-1.045 1.08 1.08 0 0 0-1.11 1.029 1.159 1.159 0 0 0 1.093 1.079 1.087 1.087 0 0 0 1.094-1.053zm27.722 1.057a1.2 1.2 0 0 0 1.173-1.005 1.084 1.084 0 0 0-1.045-1.094 1.039 1.039 0 0 0-1.15.971 1.1 1.1 0 0 0 1.025 1.138zm10.785-1.068a1.079 1.079 0 0 0-1.106-1.034 1.025 1.025 0 0 0-1.076 1.041 1.084 1.084 0 0 0 1.08 1.066 1.183 1.183 0 0 0 1.101-1.063zm-9.614 9.3a1.1 1.1 0 0 0-1.133-1.018 1.05 1.05 0 0 0-1.061 1.067 1.09 1.09 0 0 0 1.112 1.033 1.14 1.14 0 0 0 1.085-1.071zm0-18.661a1.084 1.084 0 0 0-1.144-1 1.01 1.01 0 0 0-1.047 1.071 1.115 1.115 0 0 0 1.122 1.036 1.179 1.179 0 0 0 1.069-1.095zm19.222-18.6a1.059 1.059 0 0 0-1.075-1.062 1.047 1.047 0 0 0-1.1 1.027 1.1 1.1 0 0 0 1.062 1.087 1.125 1.125 0 0 0 1.113-1.042zm-48.111 18.623a1.015 1.015 0 0 0-1.1-1.021 1.081 1.081 0 0 0-1.088 1.053 1.2 1.2 0 0 0 1.126 1.055 1.083 1.083 0 0 0 1.064-1.076zm38.507 18.643a1.1 1.1 0 0 0-1.125-1.02 1.03 1.03 0 0 0-1.058 1.061 1.071 1.071 0 0 0 1.1 1.036 1.133 1.133 0 0 0 1.078-1.066zm-1.1-28.995a1.014 1.014 0 0 0-1.085 1.035 1.082 1.082 0 0 0 1.071 1.077 1.194 1.194 0 0 0 1.111-1.066 1.076 1.076 0 0 0-1.096-1.035zm1.1 10.342a1.071 1.071 0 0 0-1.129-1.009 1.007 1.007 0 0 0-1.052 1.063 1.1 1.1 0 0 0 1.106 1.048 1.18 1.18 0 0 0 1.07-1.092zm-30.02 8.316a1.067 1.067 0 0 0-1.051 1.085 1.185 1.185 0 0 0 1.158 1.015 1.107 1.107 0 0 0 1.032-1.12 1.037 1.037 0 0 0-1.141-.97zm10.772-17.62a1.1 1.1 0 0 0-2.189 0 1.095 1.095 0 0 0 2.189 0zm9.632-.056a1.1 1.1 0 0 0-1.168-.98 1.014 1.014 0 0 0-1.022 1.1 1.1 1.1 0 0 0 1.142 1.012 1.17 1.17 0 0 0 1.046-1.122zm-9.629 18.693a1.055 1.055 0 0 0-1.114-1.02 1.042 1.042 0 0 0-1.078 1.053 1.1 1.1 0 0 0 2.192-.033zm-10.763-19.673a1.093 1.093 0 0 0-1.065 1.081 1.2 1.2 0 0 0 1.156 1.028 1.094 1.094 0 0 0 1.035-1.115 1.022 1.022 0 0 0-1.123-.985zm9.612 11.437a1.157 1.157 0 0 0 1.147-1.023 1.1 1.1 0 0 0-2.187-.1 1.142 1.142 0 0 0 1.039 1.133z" transform="translate(-6011.9 -1427.606)"/>
        <path id="Path_131746" data-name="Path 131746" class="cls-2" d="M4617.989 2647.537c.018 1.4.05 2.792.057 4.187.007 2.876.044 8.188 0 11.063a12.082 12.082 0 0 0 3.291 6.593c3.03 3.282 8.831 6.534 8.831 6.534-.337 0-8.831-3.309-8.831-3.309s-11.562 1.171-19.049 1.2c-1.242 0-6.579 1.4-7.5.69l-2.146-3.024-8.982 2.334c-11.959-2 5.958-18.686 5.958-18.686a27.094 27.094 0 0 1 3.782-2.075 30.687 30.687 0 0 1 4.805-1.384q3.319-.6 6.617-1.264 3.963-.8 7.911-1.678c1.434-.317 2.861-.678 4.282-1.049a4.093 4.093 0 0 1 .974-.132z" transform="translate(-4579.548 -2493.393)"/>
        <path id="Path_131747" data-name="Path 131747" class="cls-3" d="M5217.257 1784c-.014 1.436-.019 2.871-.046 4.306a36.738 36.738 0 0 1-.311 5.366 1.393 1.393 0 0 0 .416.126 50.342 50.342 0 0 1 16.558 1.1c2.7.581 5.338 1.321 7.96 2.145.116.037.231.079.349.12.947.333 1.295.806 1.049 1.45-.253.669-.759.846-1.743.541a91.339 91.339 0 0 0-9.886-2.55 48.07 48.07 0 0 0-13.025-.838c-.611.05-1.216.164-1.853.252-.346 1.452-.651 2.889-1.037 4.306a15.361 15.361 0 0 1-3.349 6.593 6.284 6.284 0 0 1-3.833 2.239 4.686 4.686 0 0 1-5.309-6.021 10.47 10.47 0 0 1 4.691-6.092 19.055 19.055 0 0 1 5.464-2.452c.395-.113.788-.221 1.269-.354a50.081 50.081 0 0 0 .344-9.037 59.322 59.322 0 0 0-.339-7.646 105.611 105.611 0 0 0-1.886-13.5c-2.07-9.705-5.519-18.862-11.615-26.929a43.115 43.115 0 0 0-26.165-16.783 40.919 40.919 0 0 0-7.966-.872 13.672 13.672 0 0 1-1.6-.115.941.941 0 0 1-.9-.974.992.992 0 0 1 .822-1.052 3.268 3.268 0 0 1 .854-.075 49.548 49.548 0 0 1 13.964 2.21 45.43 45.43 0 0 1 22.677 16.225 63.379 63.379 0 0 1 10.157 20.351 92.893 92.893 0 0 1 3.513 17.7q.531 5.12.776 10.26zm-3.058 12.663a12.424 12.424 0 0 0-3.827 1.4 11.369 11.369 0 0 0-3.686 2.942 5.491 5.491 0 0 0-1.414 3.849 2.341 2.341 0 0 0 2.3 2.2 3.335 3.335 0 0 0 2.389-.8 8.174 8.174 0 0 0 1.744-2 17.288 17.288 0 0 0 2-4.989 9.468 9.468 0 0 0 .495-2.603z" transform="translate(-5082.676 -1674.648)"/>
        <path id="Path_131748" data-name="Path 131748" class="cls-3" d="M4733.34 1400.439a9.558 9.558 0 0 1-1.994-.032c-.3-.712-.007-1.488-.214-2.281-.728-.209-1.522.042-2.332-.171a9.827 9.827 0 0 1-.082-1.968c.835-.268 1.635-.007 2.494-.227v-2.278a10.655 10.655 0 0 1 2.22-.082v2.228c.811.472 1.683.034 2.509.351a5.607 5.607 0 0 1-.018 1.969c-.812.234-1.615-.043-2.366.194-.257.747.051 1.524-.217 2.297z" transform="translate(-4700.836 -1389.615)"/>
        <path id="Path_131749" data-name="Path 131749" class="cls-4" d="M6848.364 1442.531a2.724 2.724 0 0 1 .615.375 1 1 0 0 1 .028 1.4 1.064 1.064 0 0 1-1.426.191 1.034 1.034 0 0 1-.37-1.36 2.75 2.75 0 0 1 .467-.539z" transform="translate(-6556.982 -1432.87)"/>
        <path id="Path_131752" data-name="Path 131752" class="cls-5" d="M4938.7 2301.26c-.015-.277-.046-.555-.045-.833q.007-12.751.023-25.5v-.676c.391-.492.979-.488 1.447-.828 2.687 2.821 5.877 3.756 9.484 2.107 3.263-1.492 4.528-4.249 4.363-7.805q10.192-4.232 20.406-8.477a1.537 1.537 0 0 1 .161.944q.006 13.228 0 26.457c0 .238-.031.477-.048.713a3.681 3.681 0 0 0-1.245.5c-3.181 1.494-6.323 3.063-9.542 4.479-4.4 1.944-8.907 3.665-13.439 5.308-3.23 1.17-6.5 2.223-9.762 3.3a4.14 4.14 0 0 1-1.803.311z" transform="translate(-4884.791 -2151.662)"/>
        <path id="Path_131753" data-name="Path 131753" class="cls-4" d="M5691.861 2607.618a4.327 4.327 0 0 1-1.387.093.715.715 0 0 1-.618-.177c-.2-.515.075-1.135-.186-1.768h-2.084a5.188 5.188 0 0 1-.077-2.033l2.268-.109v-2.11a7.187 7.187 0 0 1 2.043-.063c.323.681-.023 1.426.221 2.125.585.235 1.227-.028 1.871.2a5.33 5.33 0 0 1 .046 1.873 14.925 14.925 0 0 1-1.857.132c-.318.571-.008 1.194-.24 1.837z" transform="translate(-5540.891 -2452.797)"/>
        <path id="Path_131882" data-name="Path 131882" class="cls-4" d="M5690.555 2605.778a3.029 3.029 0 0 1-.978.065.5.5 0 0 1-.435-.124c-.141-.362.055-.8-.131-1.244h-1.467a3.648 3.648 0 0 1-.053-1.431l1.6-.077v-1.484a5.078 5.078 0 0 1 1.436-.045c.229.479-.013 1 .157 1.5.412.166.861-.019 1.316.144a3.734 3.734 0 0 1 .032 1.318 10.445 10.445 0 0 1-1.308.093c-.224.394-.007.833-.169 1.285z" transform="translate(-5611.958 -2444.536)"/>
        <path id="Path_131754" data-name="Path 131754" d="M5996.728 1749.558v93.959h-96.965v-65.542c.852-.472 1.7-.942 2.553-1.421q2.273-1.284 4.547-2.579c1.986-1.138 3.961-2.291 5.953-3.423 2.336-1.33 4.683-2.64 7.021-3.966q3.234-1.832 6.461-3.68c2.172-1.238 4.349-2.464 6.514-3.712a732.27 732.27 0 0 1 7.167-4.093c2.289-1.284 4.551-2.615 6.833-3.914.954-.544 15.565-10.386 16.521-10.927l13.346 9.3h20.049z" transform="translate(-5726.925 -1703.818)" style="fill:#eeefdb"/>
        <path id="Path_131755" data-name="Path 131755" d="M6084.944 2160.295v-4.163c2.982 0 5.931-.011 8.876-.013H6165.173v-26.429a11.637 11.637 0 0 1 3.029-.153c1.631-.034 1.921-.294 1.921-1.909q.007-7.786 0-15.571c0-1.556-.329-1.862-1.976-1.871-.935-.006-1.868 0-2.863 0v-15.021h16.564c.275.848.411 62.166.141 65.066-.852.228-95.252.308-97.045.064z" transform="translate(-5889.181 -2007.251)" style="fill:#3abfac"/>
        <path id="Path_131756" data-name="Path 131756" d="M6242.133 2232.361V2174.9h6.19v65.083c-.947.21-95.511.249-96.816.043a46.363 46.363 0 0 1-.048-7.656c4.992-.013 10.006-.005 15.019-.006H6242.134z" transform="translate(-5947.344 -2077.425)" style="fill:#f5b727"/>
        <path id="Path_131757" data-name="Path 131757" class="cls-9" d="M6215.6 2313.334v-6.982h91.016v-58.089a12.964 12.964 0 0 1 3-.139c.943-.026 1.888 0 2.809 0 .275.979.4 62.1.15 65.15-.832.236-95.235.312-96.975.06z" transform="translate(-6003.665 -2141.854)"/>
        <path id="Path_131758" data-name="Path 131758" class="cls-10" d="M6708.569 2238.381v14.766h-6.548v-14.8a27 27 0 0 1 6.548.034z" transform="translate(-6429.868 -2133.106)"/>
        <path id="Path_131759" data-name="Path 131759" class="cls-10" d="M4624.866 1937.106a9.734 9.734 0 0 1-6.213-2.15q-6.984-5.341-13.988-10.666L4590 1913.107c-.355-.272-.72-.534-1.059-.827a3.885 3.885 0 0 1 1.211-6.8c7.947-3.075 15.909-6.113 23.86-9.171q11.7-4.5 23.392-9.015a11.8 11.8 0 0 1 8.07-.542 12.319 12.319 0 0 1 3.389 1.689l28.887 20.363c1.936 1.367 2.552 3.062 1.854 4.984a4.336 4.336 0 0 1-2.633 2.527q-7.835 3.231-15.657 6.49-16.1 6.678-32.22 13.361a10.342 10.342 0 0 1-4.228.94z" transform="translate(-4577.033 -1823.403)"/>
        <path id="Path_131760" data-name="Path 131760" class="cls-5" d="M4687.73 1730.677v19.907l-35.33 13.561v-19.823z" transform="translate(-4633.974 -1686.467)"/>
        <path id="Path_131761" data-name="Path 131761" class="cls-10" d="M4651.887 1632.965v-11.251a2.274 2.274 0 0 1 1.073-.545q17.939-6.927 35.88-13.849a5.8 5.8 0 0 1 5.108.089 5.222 5.222 0 0 1-.509 9.542c-2.653 1.077-5.345 2.077-8.016 3.11l-32.321 12.472c-.34.131-.688.245-1.215.432z" transform="translate(-4633.524 -1577.418)"/>
        <path id="Path_131762" data-name="Path 131762" class="cls-10" d="M4554.156 1658.6c-1.424-.773-2.146-.422-2.266 1.058a4.153 4.153 0 0 1-3.021-.085c-.051-.141-.1-.289-.152-.433-.324-.836-.478-1.013-1.332-.9a1.119 1.119 0 0 1-1.2-.594 5.71 5.71 0 0 1-1.027-3.382q.021-13.642.009-27.286v-11.522l1.43.992c0 .658-.294 1.491.69 1.778.773.226 1.239-.218 1.529-.876a7.335 7.335 0 0 0 2.132.168 1.549 1.549 0 0 1 1.405.472c.536.576 1.6.328 1.664-.376.071-.875.648-1.193 1.238-1.594.2-.135.387-.281.568-.412.422.16.271.485.271.729q.007 18.729.01 37.459a5.645 5.645 0 0 1-1.948 4.804zm-5.438-36.054a1.148 1.148 0 0 0-1.047-1.124 1.1 1.1 0 0 0-1.135 1.016 1.016 1.016 0 0 0 1.03 1.092 1.049 1.049 0 0 0 1.152-.986zm5.425-.012a1.127 1.127 0 0 0-1.048-1.115 1.1 1.1 0 0 0-1.123 1.028 1.023 1.023 0 0 0 1.034 1.083 1.04 1.04 0 0 0 1.137-.998zm-6.571 11.51a1.113 1.113 0 0 0 1.148-1.012 1.143 1.143 0 0 0-1.054-1.115 1.087 1.087 0 0 0-1.13 1.025 1.05 1.05 0 0 0 1.035 1.101zm1.153 9.486a1.082 1.082 0 0 0-1.054-1.1 1.05 1.05 0 0 0-1.135 1 1.091 1.091 0 0 0 1.032 1.119 1.153 1.153 0 0 0 1.157-1.02zm4.37 9.427a1.025 1.025 0 0 0-1.123 1 1.1 1.1 0 0 0 1.033 1.116 1.157 1.157 0 0 0 1.141-1.03 1.04 1.04 0 0 0-1.051-1.086zm-5.44 0a1.035 1.035 0 0 0-1.118 1.014 1.094 1.094 0 0 0 1.052 1.1 1.178 1.178 0 0 0 1.139-1.043 1.064 1.064 0 0 0-1.074-1.072zm1.065-4.258a1.062 1.062 0 0 0-1.14-1 1.039 1.039 0 0 0-1.044 1.088 1.105 1.105 0 0 0 1.127 1.031 1.156 1.156 0 0 0 1.057-1.118zm5.43.051a1.061 1.061 0 0 0-1.087-1.056 1.035 1.035 0 0 0-1.093 1.038 1.094 1.094 0 0 0 1.071 1.081 1.142 1.142 0 0 0 1.108-1.064zm-5.423-21.052a1.172 1.172 0 0 0-1.144-1.04 1.083 1.083 0 0 0-1.047 1.1 1.054 1.054 0 0 0 1.115 1.024 1.1 1.1 0 0 0 1.076-1.082zm0 10.572a1.142 1.142 0 0 0-1.078-1.094 1.083 1.083 0 0 0-1.11 1.04 1.063 1.063 0 0 0 1.052 1.09 1.136 1.136 0 0 0 1.134-1.036zm4.345-9.486a1.1 1.1 0 0 0 1.08-1.076 1.145 1.145 0 0 0-1.123-1.05 1.075 1.075 0 0 0-1.057 1.089 1.054 1.054 0 0 0 1.097 1.037zm-.021 15.768a1.134 1.134 0 0 0 1.1-1.066 1.083 1.083 0 0 0-1.1-1.056 1.05 1.05 0 0 0-1.084 1.05 1.086 1.086 0 0 0 1.082 1.072zm-.039-12.635a1.071 1.071 0 0 0-1.038 1.1 1.055 1.055 0 0 0 1.113 1.024 1.1 1.1 0 0 0 1.061-1.093 1.132 1.132 0 0 0-1.138-1.031zm-1.038 6.375a1.064 1.064 0 0 0 1.127 1.013 1.105 1.105 0 0 0 1.044-1.111 1.12 1.12 0 0 0-1.146-1.017 1.076 1.076 0 0 0-1.027 1.115z" transform="translate(-4540.006 -1585.062)"/>
        <path id="Path_131763" data-name="Path 131763" class="cls-10" d="M4545.2 2151.377c2.394 1.809 4.589 3.465 6.763 5.106.105 1.646.407 1.882 1.931 1.547l.218.1c1.734.827 2.1 2.179 2.079 4-.094 9.5-.044 19-.044 28.5a6.45 6.45 0 0 1-.782 3.575 5.491 5.491 0 0 1-5.939 2.475 5.339 5.339 0 0 1-4.225-5c-.01-.319 0-.638 0-.958v-39.342zm8.978 42.455a1.064 1.064 0 0 0-1.154-.984 1.014 1.014 0 0 0-1.024 1.095 1.091 1.091 0 0 0 1.14 1.013 1.118 1.118 0 0 0 1.041-1.123zm-5.422.024a1.071 1.071 0 0 0-1.136-1.007 1 1 0 0 0-1.047 1.073 1.07 1.07 0 0 0 1.11 1.038 1.144 1.144 0 0 0 1.076-1.104zm-1.055-14.643a1.158 1.158 0 0 0 1.055-1.119 1.074 1.074 0 0 0-1.148-1 1.041 1.041 0 0 0-1.037 1.094 1.107 1.107 0 0 0 1.129 1.025zm1.057-22.084a1.156 1.156 0 0 0-1.127-1.051 1.089 1.089 0 0 0-1.058 1.091 1.019 1.019 0 0 0 1.1 1.022 1.059 1.059 0 0 0 1.088-1.062zm0 31.5a1.062 1.062 0 0 0-1.131-1.012 1.032 1.032 0 0 0-1.059 1.069 1.107 1.107 0 0 0 1.114 1.046 1.17 1.17 0 0 0 1.077-1.103zm-1.158-19.929a1.125 1.125 0 0 0 1.155-1.008 1.141 1.141 0 0 0-1.055-1.12 1.081 1.081 0 0 0-1.128 1.017 1.049 1.049 0 0 0 1.028 1.111zm1.164 4.2a1.142 1.142 0 0 0-1.112-1.064 1.064 1.064 0 1 0 0 2.128 1.146 1.146 0 0 0 1.116-1.064zm-1.132 9.453a1.038 1.038 0 0 0-1.066 1.065 1.109 1.109 0 0 0 1.106 1.052 1.173 1.173 0 0 0 1.085-1.095 1.065 1.065 0 0 0-1.121-1.02zm5.441 2.116a1.14 1.14 0 0 0 1.108-1.063 1.052 1.052 0 0 0-1.088-1.053 1.026 1.026 0 0 0-1.091 1.035 1.1 1.1 0 0 0 1.075 1.084zm-.018 3.146a1.026 1.026 0 0 0-1.057 1.068 1.108 1.108 0 0 0 1.112 1.047 1.148 1.148 0 0 0 1.065-1.106 1.035 1.035 0 0 0-1.115-1.006zm-5.362-26.3a1.09 1.09 0 0 0-1.124 1.029 1.045 1.045 0 0 0 1.037 1.1 1.113 1.113 0 0 0 1.15-1.013 1.159 1.159 0 0 0-1.056-1.116zm6.488 16.844a1.065 1.065 0 0 0-1.079-1.067 1.04 1.04 0 0 0-1.1 1.033 1.093 1.093 0 0 0 1.062 1.087 1.137 1.137 0 0 0 1.122-1.054zm0-15.715a1.136 1.136 0 0 0-1.039-1.126 1.084 1.084 0 0 0-1.135 1.012 1.05 1.05 0 0 0 1.02 1.113 1.1 1.1 0 0 0 1.154-1zm0 5.145a1.131 1.131 0 0 0-1.154-1.012 1.065 1.065 0 1 0 .115 2.127 1.1 1.1 0 0 0 1.039-1.116zm-1.095 6.377a1.065 1.065 0 1 0-.007-2.128 1.08 1.08 0 0 0-1.076 1.069 1.067 1.067 0 0 0 1.083 1.058z" transform="translate(-4540.044 -2056.724)"/>
        <path id="Path_131764" data-name="Path 131764" class="cls-10" d="M4832.548 2509.2c3.083 2.383 6.715 2.917 10.586.075.307.138.182.413.182.624q.012 15.073 0 30.144a5.337 5.337 0 0 1-5.4 5.4 5.394 5.394 0 0 1-5.493-4.946c-.019-.276-.009-.556-.009-.836v-29.308a2.308 2.308 0 0 1 .134-1.153z" transform="translate(-4791.693 -2371.643)"/>
        <path id="Path_131765" data-name="Path 131765" class="cls-10" d="M5257.3 2348.449a2.138 2.138 0 0 1 .169 1.187v28.963a5.812 5.812 0 0 1-.731 3.223 5.467 5.467 0 0 1-5.777 2.542 5.351 5.351 0 0 1-4.383-4.728c-.031-.317-.031-.638-.031-.957v-30.324a8.729 8.729 0 0 0 5.369 2.095 7.992 7.992 0 0 0 5.384-2.001z" transform="translate(-5154.573 -2230.085)"/>
        <path id="Path_131766" data-name="Path 131766" class="cls-10" d="M4956.23 1484.05c-.17-1.665-.125-13.452.041-14.4 3.817 2.74 7.327 2.434 10.6-.045.329.189.167.5.168.746l.017 36.984a5.63 5.63 0 0 1-2.1 4.878 5.282 5.282 0 0 1-5.455.746 4.814 4.814 0 0 1-3.321-4.375c-.123-2.826-.03-5.66-.03-8.567 1.571-.609 3.131-1.2 4.681-1.818a7.293 7.293 0 0 0 4.483-4.79 7.474 7.474 0 0 0-7.178-9.526 7.035 7.035 0 0 0-1.906.167z" transform="translate(-4900.09 -1456.697)"/>
        <path id="Path_131767" data-name="Path 131767" class="cls-10" d="M4550.57 1537.32a5.281 5.281 0 1 1 5.488-5.172 5.388 5.388 0 0 1-5.488 5.172z" transform="translate(-4539.999 -1507.003)"/>
        <path id="Path_131768" data-name="Path 131768" class="cls-10" d="M4956.291 1385.281a5.291 5.291 0 0 1 5.428-5.207 5.388 5.388 0 0 1 5.469 5.327 5.451 5.451 0 0 1-5.469 5.235 5.362 5.362 0 0 1-5.428-5.355z" transform="translate(-4900.246 -1377.902)"/>
        <path id="Path_131769" data-name="Path 131769" class="cls-10" d="m4968.891 2341.444 9.337-3.88a5.26 5.26 0 0 1-3.035 4.948 5.422 5.422 0 0 1-6.302-1.068z" transform="translate(-4911.286 -2220.586)"/>
        <path id="Path_131770" data-name="Path 131770" class="cls-3" d="M6460.707 1675.25a1.082 1.082 0 0 1-1.062 1.083 1.127 1.127 0 0 1-1.107-1.053 1.045 1.045 0 0 1 1.075-1.051 1.014 1.014 0 0 1 1.094 1.021z" transform="translate(-6216.525 -1636.786)"/>
        <path id="Path_131783" data-name="Path 131783" class="cls-3" d="M6693.8 1830.592a1.133 1.133 0 0 1-1.078 1.083 1.087 1.087 0 0 1-1.111-1.033 1.048 1.048 0 0 1 1.062-1.067 1.1 1.1 0 0 1 1.127 1.017z" transform="translate(-6420.749 -1773.507)"/>
        <g id="Group_55085" data-name="Group 55085" transform="translate(242.012 9.453)">
            <path id="Path_131750" data-name="Path 131750" class="cls-4" d="M6537.474 1518.81c.111.244.315.447.327.743a1.033 1.033 0 0 1-.712 1.1.989.989 0 0 1-1.186-.324 3.03 3.03 0 0 1-.354-.733c.609-1.082.704-1.121 1.925-.786z" transform="translate(-6526.016 -1509.293)"/>
            <path id="Path_131751" data-name="Path 131751" class="cls-4" d="M6770.965 1451.172a4.442 4.442 0 0 1 .42.427.929.929 0 0 1-.1 1.3 1.025 1.025 0 0 1-1.229.249.979.979 0 0 1-.628-1.161 3.316 3.316 0 0 1 .287-.647 1.689 1.689 0 0 1 1.25-.168z" transform="translate(-6730.917 -1449.87)"/>
            <path id="Path_131771" data-name="Path 131771" class="cls-4" d="M6925.943 1831.7a1.022 1.022 0 0 1-1.087-1.034 1.051 1.051 0 0 1 1.071-1.058 1.092 1.092 0 0 1 1.1 1.05 1.042 1.042 0 0 1-1.084 1.042z" transform="translate(-6867.13 -1782.991)"/>
            <path id="Path_131772" data-name="Path 131772" class="cls-4" d="M6927.018 1675.257a1.121 1.121 0 0 1-1.082 1.079 1.087 1.087 0 0 1-1.086-1.06 1.012 1.012 0 0 1 1.069-1.046 1.04 1.04 0 0 1 1.099 1.027z" transform="translate(-6867.125 -1646.242)"/>
            <path id="Path_131773" data-name="Path 131773" class="cls-4" d="M6925.944 1751.963a1.055 1.055 0 0 1 1.079 1.049 1.083 1.083 0 0 1-1.1 1.041 1.039 1.039 0 0 1-1.064-1.058 1.024 1.024 0 0 1 1.085-1.032z" transform="translate(-6867.132 -1714.654)"/>
            <path id="Path_131774" data-name="Path 131774" class="cls-4" d="M6460.708 1597.444a1.1 1.1 0 0 1-1.016 1.133 1.161 1.161 0 0 1-1.153-1.011 1.087 1.087 0 0 1 2.169-.122z" transform="translate(-6458.537 -1577.804)"/>
            <path id="Path_131775" data-name="Path 131775" class="cls-4" d="M6927.019 1519.66a1.137 1.137 0 0 1-1.055 1.1 1.109 1.109 0 0 1-1.112-1.04 1.085 1.085 0 0 1 2.167-.064z" transform="translate(-6867.126 -1509.319)"/>
            <path id="Path_131776" data-name="Path 131776" class="cls-4" d="M6615.969 1597.47a1.114 1.114 0 0 1-1.049 1.11 1.2 1.2 0 0 1-1.145-1.039 1.08 1.08 0 0 1 1.074-1.069 1.021 1.021 0 0 1 1.12.998z" transform="translate(-6594.558 -1577.805)"/>
            <path id="Path_131777" data-name="Path 131777" class="cls-4" d="M6925.978 1596.479a1.03 1.03 0 0 1 1.048 1.071 1.159 1.159 0 0 1-1.131 1.035 1.1 1.1 0 0 1-1.037-1.11 1.024 1.024 0 0 1 1.12-.996z" transform="translate(-6867.132 -1577.812)"/>
            <path id="Path_131778" data-name="Path 131778" class="cls-4" d="M6538.288 1675.282a1.088 1.088 0 0 1-1.089 1.063 1.162 1.162 0 0 1-1.1-1.078 1.08 1.08 0 0 1 1.113-1.029 1.02 1.02 0 0 1 1.076 1.044z" transform="translate(-6526.501 -1646.248)"/>
            <path id="Path_131779" data-name="Path 131779" class="cls-4" d="M6770.449 1676.344a1.1 1.1 0 0 1-1.02-1.128 1.03 1.03 0 0 1 1.145-.971 1.085 1.085 0 0 1 1.046 1.094 1.2 1.2 0 0 1-1.171 1.005z" transform="translate(-6730.944 -1646.253)"/>
            <path id="Path_131780" data-name="Path 131780" class="cls-4" d="M6849.367 1675.268a1.175 1.175 0 0 1-1.1 1.073 1.077 1.077 0 0 1-1.078-1.066 1.019 1.019 0 0 1 1.073-1.041 1.076 1.076 0 0 1 1.105 1.034z" transform="translate(-6799.076 -1646.245)"/>
            <path id="Path_131781" data-name="Path 131781" class="cls-4" d="M6771.621 1752.96a1.14 1.14 0 0 1-1.08 1.084 1.089 1.089 0 0 1-1.112-1.034 1.047 1.047 0 0 1 1.061-1.067 1.1 1.1 0 0 1 1.131 1.017z" transform="translate(-6730.942 -1714.636)"/>
            <path id="Path_131782" data-name="Path 131782" class="cls-4" d="M6693.8 1752.96a1.135 1.135 0 0 1-1.078 1.084 1.088 1.088 0 0 1-1.111-1.034 1.048 1.048 0 0 1 1.062-1.067 1.1 1.1 0 0 1 1.127 1.017z" transform="translate(-6662.761 -1714.636)"/>
            <path id="Path_131784" data-name="Path 131784" class="cls-4" d="M6771.611 1597.475a1.186 1.186 0 0 1-1.07 1.111 1.114 1.114 0 0 1-1.123-1.037 1.011 1.011 0 0 1 1.044-1.071 1.09 1.09 0 0 1 1.149.997z" transform="translate(-6730.933 -1577.812)"/>
            <path id="Path_131785" data-name="Path 131785" class="cls-4" d="M6927.018 1441.866a1.131 1.131 0 0 1-1.11 1.052 1.1 1.1 0 0 1-1.062-1.087 1.047 1.047 0 0 1 1.1-1.028 1.058 1.058 0 0 1 1.072 1.063z" transform="translate(-6867.121 -1440.804)"/>
            <path id="Path_131786" data-name="Path 131786" class="cls-4" d="M6538.267 1597.488a1.079 1.079 0 0 1-1.059 1.088 1.2 1.2 0 0 1-1.123-1.056 1.077 1.077 0 0 1 1.085-1.053 1.015 1.015 0 0 1 1.097 1.021z" transform="translate(-6526.485 -1577.802)"/>
            <path id="Path_131787" data-name="Path 131787" class="cls-4" d="M6849.367 1752.976a1.131 1.131 0 0 1-1.078 1.077 1.068 1.068 0 0 1-1.1-1.036 1.03 1.03 0 0 1 1.058-1.06 1.1 1.1 0 0 1 1.12 1.019z" transform="translate(-6799.076 -1714.649)"/>
            <path id="Path_131788" data-name="Path 131788" class="cls-4" d="M6848.267 1518.646a1.08 1.08 0 0 1 1.1 1.044 1.2 1.2 0 0 1-1.114 1.066 1.081 1.081 0 0 1-1.072-1.076 1.014 1.014 0 0 1 1.086-1.034z" transform="translate(-6799.072 -1509.312)"/>
            <path id="Path_131789" data-name="Path 131789" class="cls-4" d="M6849.35 1597.489a1.188 1.188 0 0 1-1.078 1.1 1.1 1.1 0 0 1-1.105-1.048 1.007 1.007 0 0 1 1.053-1.062 1.072 1.072 0 0 1 1.13 1.01z" transform="translate(-6799.056 -1577.815)"/>
            <path id="Path_131790" data-name="Path 131790" class="cls-4" d="M6614.834 1674.242a1.032 1.032 0 0 1 1.136.979 1.1 1.1 0 0 1-1.028 1.12 1.185 1.185 0 0 1-1.159-1.014 1.066 1.066 0 0 1 1.051-1.085z" transform="translate(-6594.563 -1646.25)"/>
            <path id="Path_131791" data-name="Path 131791" class="cls-4" d="M6693.81 1519.674a1.094 1.094 0 0 1-2.188 0 1.1 1.1 0 0 1 2.188 0z" transform="translate(-6662.77 -1509.303)"/>
            <path id="Path_131792" data-name="Path 131792" class="cls-4" d="M6771.612 1519.631a1.168 1.168 0 0 1-1.05 1.126 1.1 1.1 0 0 1-1.138-1.011 1.012 1.012 0 0 1 1.021-1.1 1.1 1.1 0 0 1 1.167.985z" transform="translate(-6730.938 -1509.315)"/>
            <path id="Path_131793" data-name="Path 131793" class="cls-4" d="M6693.81 1675.237a1.1 1.1 0 0 1-2.193.032 1.041 1.041 0 0 1 1.081-1.053 1.053 1.053 0 0 1 1.112 1.021z" transform="translate(-6662.764 -1646.229)"/>
            <path id="Path_131794" data-name="Path 131794" class="cls-4" d="M6614.845 1518.641a1.024 1.024 0 0 1 1.126.993 1.094 1.094 0 0 1-1.035 1.116 1.2 1.2 0 0 1-1.156-1.028 1.091 1.091 0 0 1 1.065-1.081z" transform="translate(-6594.561 -1509.307)"/>
            <path id="Path_131795" data-name="Path 131795" class="cls-4" d="M6692.663 1598.576a1.141 1.141 0 0 1-1.04-1.124 1.1 1.1 0 0 1 2.188.1 1.159 1.159 0 0 1-1.148 1.024z" transform="translate(-6662.768 -1577.804)"/>
        </g>
        <path id="Path_131796" data-name="Path 131796" class="cls-5" d="M5502.755 2379.561a9.505 9.505 0 0 1-.486 2.611 17.25 17.25 0 0 1-2 4.987 8.228 8.228 0 0 1-1.747 2 3.341 3.341 0 0 1-2.386.8 2.342 2.342 0 0 1-2.306-2.2 5.491 5.491 0 0 1 1.413-3.851 11.354 11.354 0 0 1 3.688-2.94 12.333 12.333 0 0 1 3.824-1.407z" transform="translate(-5371.231 -2257.548)"/>
        <path id="Path_131797" data-name="Path 131797" class="cls-3" d="M4558.483 1666.3a1.048 1.048 0 0 1-1.153.985 1.014 1.014 0 0 1-1.027-1.092 1.092 1.092 0 0 1 1.136-1.016 1.146 1.146 0 0 1 1.044 1.123z" transform="translate(-4549.772 -1628.823)"/>
        <path id="Path_131798" data-name="Path 131798" class="cls-3" d="M4602.361 1666.279a1.04 1.04 0 0 1-1.134 1 1.024 1.024 0 0 1-1.038-1.084 1.1 1.1 0 0 1 1.125-1.028 1.129 1.129 0 0 1 1.047 1.112z" transform="translate(-4588.227 -1628.808)"/>
        <path id="Path_131799" data-name="Path 131799" class="cls-3" d="M4557.333 1754.838a1.043 1.043 0 0 1-1.032-1.1 1.081 1.081 0 0 1 1.125-1.025 1.145 1.145 0 0 1 1.058 1.115 1.115 1.115 0 0 1-1.151 1.01z" transform="translate(-4549.771 -1705.858)"/>
        <path id="Path_131800" data-name="Path 131800" class="cls-3" d="M4558.488 1841.5a1.145 1.145 0 0 1-1.153 1.02 1.089 1.089 0 0 1-1.031-1.118 1.05 1.05 0 0 1 1.135-1 1.078 1.078 0 0 1 1.049 1.098z" transform="translate(-4549.773 -1783.035)"/>
        <path id="Path_131801" data-name="Path 131801" class="cls-3" d="M4601.328 1928.2a1.039 1.039 0 0 1 1.048 1.084 1.152 1.152 0 0 1-1.14 1.03 1.1 1.1 0 0 1-1.032-1.117 1.024 1.024 0 0 1 1.124-.997z" transform="translate(-4588.24 -1860.307)"/>
        <path id="Path_131802" data-name="Path 131802" class="cls-3" d="M4557.417 1928.2a1.06 1.06 0 0 1 1.073 1.071 1.173 1.173 0 0 1-1.137 1.044 1.093 1.093 0 0 1-1.051-1.1 1.034 1.034 0 0 1 1.115-1.015z" transform="translate(-4549.772 -1860.308)"/>
        <path id="Path_131803" data-name="Path 131803" class="cls-3" d="M4558.475 1885.318a1.156 1.156 0 0 1-1.056 1.115 1.108 1.108 0 0 1-1.128-1.031 1.04 1.04 0 0 1 1.043-1.087 1.063 1.063 0 0 1 1.141 1.003z" transform="translate(-4549.761 -1821.682)"/>
        <path id="Path_131804" data-name="Path 131804" class="cls-3" d="M4602.367 1885.368a1.139 1.139 0 0 1-1.105 1.064 1.094 1.094 0 0 1-1.072-1.081 1.033 1.033 0 0 1 1.092-1.038 1.056 1.056 0 0 1 1.085 1.055z" transform="translate(-4588.228 -1821.682)"/>
        <path id="Path_131805" data-name="Path 131805" class="cls-3" d="M4558.5 1709.911a1.1 1.1 0 0 1-1.076 1.086 1.054 1.054 0 0 1-1.114-1.024 1.084 1.084 0 0 1 1.047-1.1 1.171 1.171 0 0 1 1.143 1.038z" transform="translate(-4549.775 -1667.276)"/>
        <path id="Path_131806" data-name="Path 131806" class="cls-3" d="M4558.484 1797.682a1.13 1.13 0 0 1-1.133 1.034 1.062 1.062 0 0 1-1.053-1.089 1.079 1.079 0 0 1 1.11-1.04 1.137 1.137 0 0 1 1.076 1.095z" transform="translate(-4549.769 -1744.474)"/>
        <path id="Path_131807" data-name="Path 131807" class="cls-3" d="M4601.291 1711a1.053 1.053 0 0 1-1.1-1.037 1.077 1.077 0 0 1 1.057-1.088 1.143 1.143 0 0 1 1.12 1.05 1.1 1.1 0 0 1-1.077 1.075z" transform="translate(-4588.229 -1667.279)"/>
        <path id="Path_131808" data-name="Path 131808" class="cls-3" d="M4601.255 1842.535a1.088 1.088 0 0 1-1.08-1.072 1.053 1.053 0 0 1 1.086-1.05 1.082 1.082 0 0 1 1.095 1.056 1.136 1.136 0 0 1-1.101 1.066z" transform="translate(-4588.215 -1783.046)"/>
        <path id="Path_131809" data-name="Path 131809" class="cls-3" d="M4601.233 1752.732a1.131 1.131 0 0 1 1.135 1.034 1.1 1.1 0 0 1-1.063 1.093 1.054 1.054 0 0 1-1.113-1.024 1.075 1.075 0 0 1 1.041-1.103z" transform="translate(-4588.228 -1705.877)"/>
        <path id="Path_131810" data-name="Path 131810" class="cls-3" d="M4600.2 1797.715a1.08 1.08 0 0 1 1.026-1.116 1.122 1.122 0 0 1 1.147 1.016 1.108 1.108 0 0 1-1.042 1.112 1.067 1.067 0 0 1-1.131-1.012z" transform="translate(-4588.232 -1744.484)"/>
        <path id="Path_131811" data-name="Path 131811" class="cls-3" d="M4602.317 2498.22a1.113 1.113 0 0 1-1.039 1.124 1.091 1.091 0 0 1-1.14-1.012 1.017 1.017 0 0 1 1.026-1.1 1.06 1.06 0 0 1 1.153.988z" transform="translate(-4588.181 -2361.112)"/>
        <path id="Path_131812" data-name="Path 131812" class="cls-3" d="M4558.492 2498.252a1.137 1.137 0 0 1-1.067 1.1 1.072 1.072 0 0 1-1.113-1.037 1 1 0 0 1 1.045-1.074 1.067 1.067 0 0 1 1.135 1.011z" transform="translate(-4549.781 -2361.119)"/>
        <path id="Path_131813" data-name="Path 131813" class="cls-3" d="M4557.428 2367.958a1.1 1.1 0 0 1-1.13-1.027 1.039 1.039 0 0 1 1.036-1.094 1.071 1.071 0 0 1 1.146 1 1.159 1.159 0 0 1-1.052 1.121z" transform="translate(-4549.769 -2245.469)"/>
        <path id="Path_131814" data-name="Path 131814" class="cls-3" d="M4558.5 2191.627a1.055 1.055 0 0 1-1.081 1.061 1.02 1.02 0 0 1-1.1-1.021 1.089 1.089 0 0 1 1.058-1.092 1.155 1.155 0 0 1 1.123 1.052z" transform="translate(-4549.784 -2091.222)"/>
        <path id="Path_131815" data-name="Path 131815" class="cls-3" d="M4558.472 2454.634a1.169 1.169 0 0 1-1.074 1.1 1.1 1.1 0 0 1-1.111-1.047 1.027 1.027 0 0 1 1.058-1.069 1.057 1.057 0 0 1 1.127 1.016z" transform="translate(-4549.758 -2322.729)"/>
        <path id="Path_131816" data-name="Path 131816" class="cls-3" d="M4557.331 2280.244a1.054 1.054 0 0 1-1.027-1.112 1.084 1.084 0 0 1 1.133-1.017 1.066 1.066 0 1 1-.106 2.129z" transform="translate(-4549.772 -2168.265)"/>
        <path id="Path_131817" data-name="Path 131817" class="cls-3" d="M4558.467 2323.086a1.14 1.14 0 0 1-1.111 1.063 1.064 1.064 0 1 1 0-2.127 1.139 1.139 0 0 1 1.111 1.064z" transform="translate(-4549.745 -2206.908)"/>
        <path id="Path_131818" data-name="Path 131818" class="cls-3" d="M4557.343 2409.739a1.063 1.063 0 0 1 1.125 1.021 1.171 1.171 0 0 1-1.085 1.1 1.107 1.107 0 0 1-1.1-1.052 1.036 1.036 0 0 1 1.06-1.069z" transform="translate(-4549.75 -2284.107)"/>
        <path id="Path_131819" data-name="Path 131819" class="cls-3" d="M4601.262 2411.852a1.1 1.1 0 0 1-1.07-1.083 1.028 1.028 0 0 1 1.095-1.034 1.05 1.05 0 0 1 1.085 1.053 1.14 1.14 0 0 1-1.11 1.064z" transform="translate(-4588.23 -2284.104)"/>
        <path id="Path_131820" data-name="Path 131820" class="cls-3" d="M4601.229 2453.623a1.033 1.033 0 0 1 1.119 1.01 1.143 1.143 0 0 1-1.062 1.1 1.106 1.106 0 0 1-1.11-1.047 1.026 1.026 0 0 1 1.053-1.063z" transform="translate(-4588.215 -2322.729)"/>
        <path id="Path_131821" data-name="Path 131821" class="cls-3" d="M4557.424 2234.248a1.162 1.162 0 0 1 1.06 1.114 1.107 1.107 0 0 1-1.146 1.013 1.041 1.041 0 0 1-1.038-1.1 1.09 1.09 0 0 1 1.124-1.027z" transform="translate(-4549.769 -2129.657)"/>
        <path id="Path_131822" data-name="Path 131822" class="cls-3" d="M4602.372 2366.9a1.14 1.14 0 0 1-1.118 1.054 1.094 1.094 0 0 1-1.064-1.088 1.039 1.039 0 0 1 1.1-1.032 1.067 1.067 0 0 1 1.082 1.066z" transform="translate(-4588.228 -2245.466)"/>
        <path id="Path_131823" data-name="Path 131823" class="cls-3" d="M4602.369 2235.384a1.1 1.1 0 0 1-1.154 1 1.049 1.049 0 0 1-1.019-1.114 1.083 1.083 0 0 1 1.136-1.012 1.136 1.136 0 0 1 1.037 1.126z" transform="translate(-4588.231 -2129.666)"/>
        <path id="Path_131824" data-name="Path 131824" class="cls-3" d="M4602.371 2279.143a1.1 1.1 0 0 1-1.038 1.116 1.066 1.066 0 1 1-.116-2.128 1.126 1.126 0 0 1 1.154 1.012z" transform="translate(-4588.236 -2168.278)"/>
        <path id="Path_131825" data-name="Path 131825" class="cls-3" d="M4601.25 2324.149a1.064 1.064 0 1 1-.008-2.127 1.064 1.064 0 1 1 .008 2.127z" transform="translate(-4588.207 -2206.908)"/>
        <g id="Group_55084" data-name="Group 55084" transform="translate(23.515 65.114)">
            <g id="Group_55083" data-name="Group 55083">
                <path id="Path_131826" data-name="Path 131826" class="cls-11" d="M4764.44 2035.154a2.6 2.6 0 0 0-.153.665 40.082 40.082 0 0 1-2.522 7.925 52.313 52.313 0 0 1-4.274 7.872 65.931 65.931 0 0 1-7.2 9.1c-1.107 1.178-2.254 2.326-3.477 3.4-.03.027-.064.052-.095.078-.106-.021-.13-.111-.17-.179a30.628 30.628 0 0 0-4.786-5.916 22.148 22.148 0 0 0-6.364-4.424 15.718 15.718 0 0 0-5.526-1.375 15.418 15.418 0 0 0-6.5 1.041 2.356 2.356 0 0 1-1.4.093 10.3 10.3 0 0 1-1.926-.61.84.84 0 0 1-.221-.129 21.627 21.627 0 0 0-5.257-3.08 41.321 41.321 0 0 0-8.98-2.677 60.538 60.538 0 0 0-5.976-.793c-.812-.07-1.629-.108-2.445-.16a10.714 10.714 0 0 0 2.986-1.863 18.808 18.808 0 0 0 1.917-1.8c.467.037.931.125 1.4.118h-.006c.07.089.172.052.263.064a4.369 4.369 0 0 1-.872.726 8.424 8.424 0 0 1-2.127 1.2c-.018.005-.026.028-.066.079.546-.032 1.056.076 1.572.063a6.109 6.109 0 0 0 1.313.129 1.538 1.538 0 0 0 .544.06 3.567 3.567 0 0 0 1.011.128 7.013 7.013 0 0 0 .943.162c.557.1 1.111.2 1.662.326a.663.663 0 0 0 .129.008.371.371 0 0 0 .285.063h-.006c.1.091.214.063.327.066h-.006c.068.094.173.058.264.065.068.092.172.059.262.064.067.095.18.047.265.086a28.282 28.282 0 0 1 5.579 2.08 18.675 18.675 0 0 1 3.547 2.313 10.712 10.712 0 0 1 1.607 1.614.487.487 0 0 0 .2.155 8.764 8.764 0 0 0 2.379.641.543.543 0 0 0 .337-.055 15.554 15.554 0 0 1 3.4-1.309c.084-.035.2.014.264-.083.112 0 .233.029.326-.066.112 0 .233.026.329-.064h-.007c.111-.008.236.024.335-.064l1.021-.123c.993-.012 1.987-.018 2.979.062.5.112 1.014.167 1.513.287a17.974 17.974 0 0 1 4.969 2.027 25.112 25.112 0 0 1 3.479 2.474 30.338 30.338 0 0 1 2.264 2.092 30.009 30.009 0 0 1 3.1 3.71c.036.051.079.1.116.139.117-.021.166-.11.233-.172 1-.934 1.913-1.945 2.816-2.964a62.243 62.243 0 0 0 5.047-6.513 54.045 54.045 0 0 0 3.9-6.757 44.084 44.084 0 0 0 2.291-5.731c.436-1.351.769-2.727 1.067-4.111.117-.537.105-.535-.236-.989-.268-.364-.571-.7-.871-1.041a.417.417 0 0 1-.117-.446c.114-.4.135-.817.267-1.214a7.334 7.334 0 0 1 .766.748 31 31 0 0 1 2.281 2.694.9.9 0 0 1 .031.091z" transform="translate(-4696.71 -2016.426)"/>
                <g id="Group_55081-2" data-name="Group 55081" transform="translate(0 15.487)">
                    <path id="Path_131827" data-name="Path 131827" class="cls-3" d="M4743.52 2066.9a.511.511 0 0 1-.092-.01.648.648 0 0 1-.458-.366.078.078 0 0 1-.007-.018 30.494 30.494 0 0 0-4.715-5.831 21.7 21.7 0 0 0-6.237-4.335 15.366 15.366 0 0 0-5.367-1.335 15.019 15.019 0 0 0-6.309 1.012 2.809 2.809 0 0 1-1.668.113 10.678 10.678 0 0 1-2.014-.638 1.379 1.379 0 0 1-.329-.2 21.087 21.087 0 0 0-5.146-3.012 40.816 40.816 0 0 0-8.882-2.647 59.847 59.847 0 0 0-5.929-.786c-.554-.048-1.12-.08-1.669-.112l-.768-.047a.447.447 0 0 1-.417-.371.436.436 0 0 1 .282-.474 10.38 10.38 0 0 0 2.857-1.788c.48-.4.906-.778 1.3-1.168a.464.464 0 0 1 .64 0 .428.428 0 0 1 .005.619c-.415.409-.86.808-1.36 1.221a14.891 14.891 0 0 1-1.623 1.19 60.28 60.28 0 0 1 6.852.863 41.7 41.7 0 0 1 9.079 2.708 21.954 21.954 0 0 1 5.366 3.146.421.421 0 0 0 .11.063 9.7 9.7 0 0 0 1.842.583 1.894 1.894 0 0 0 1.138-.073 15.976 15.976 0 0 1 6.7-1.072 16.275 16.275 0 0 1 5.691 1.415 22.6 22.6 0 0 1 6.5 4.51 31.224 31.224 0 0 1 4.7 5.76c.99-.881 2-1.883 3.173-3.124a65.962 65.962 0 0 0 7.146-9.036 52.473 52.473 0 0 0 4.24-7.807 39.98 39.98 0 0 0 2.494-7.841c.008-.053.02-.112.028-.173a2.883 2.883 0 0 1 .071-.354 31.218 31.218 0 0 0-2.173-2.556.431.431 0 0 1 .025-.62.464.464 0 0 1 .64.024 32.218 32.218 0 0 1 2.311 2.733.908.908 0 0 1 .09.15.075.075 0 0 0 .008.019.427.427 0 0 1 .007.385 1.192 1.192 0 0 0-.083.347c-.013.07-.022.141-.037.217a40.58 40.58 0 0 1-2.547 8.008 53.228 53.228 0 0 1-4.309 7.937 66.9 66.9 0 0 1-7.245 9.157c-1.3 1.377-2.409 2.466-3.507 3.426-.025.024-.053.045-.08.067l-.024.021a.469.469 0 0 1-.3.1z" transform="translate(-4693.508 -2034.184)"/>
                </g>
                <path id="Path_131828" data-name="Path 131828" class="cls-12" d="M4737.971 2120.633c-.473.008-.936-.081-1.4-.117a.505.505 0 0 1-.031-.057 6.977 6.977 0 0 1 .883.08c.177.037.384-.045.548.094z" transform="translate(-4731.212 -2094.627)"/>
                <path id="Path_131829" data-name="Path 131829" class="cls-3" d="M4801.075 2049.049c.33-.416.668-.831.992-1.258a70.523 70.523 0 0 0 5.858-9.045 61.46 61.46 0 0 0 4.909-11.8c.028-.08.045-.162.077-.239a.419.419 0 0 1 .442-.245.406.406 0 0 1 .312.418 1.158 1.158 0 0 1-.044.214 53.38 53.38 0 0 1-2.107 6.522 59.41 59.41 0 0 1-3.027 6.484 62.567 62.567 0 0 1-5.729 8.865c-.369.474-.75.941-1.126 1.406a.666.666 0 0 1-1.059.082c-.434-.391-.846-.8-1.3-1.173a22.157 22.157 0 0 0-9.248-4.63 17.331 17.331 0 0 0-4.547-.421 18.55 18.55 0 0 0-5.472 1.089 18.218 18.218 0 0 0-2.439 1.054 1.369 1.369 0 0 1-.9.145 9.4 9.4 0 0 1-2.37-.686 1.131 1.131 0 0 1-.483-.395 20.561 20.561 0 0 0-5.75-5.413 25.96 25.96 0 0 0-5.195-2.622 33.425 33.425 0 0 0-3.754-1.124c-.243-.062-.377-.184-.38-.362a.4.4 0 0 1 .488-.406c.438.1.881.182 1.319.286a26.815 26.815 0 0 1 8.369 3.493 22.543 22.543 0 0 1 5.416 4.783 3.062 3.062 0 0 1 .262.354 1.068 1.068 0 0 0 .61.47 9.975 9.975 0 0 0 1.563.384.645.645 0 0 0 .424-.105 20.846 20.846 0 0 1 3.45-1.385 20.216 20.216 0 0 1 3.748-.772 18.657 18.657 0 0 1 5.616.268 22.242 22.242 0 0 1 8.276 3.577 22.729 22.729 0 0 1 2.6 2.054.444.444 0 0 0 .199.133z" transform="translate(-4750.657 -2011.898)"/>
                <path id="Path_131830" data-name="Path 131830" class="cls-11" d="M5000.461 2072.784c.282-.315.541-.6.8-.9a66.868 66.868 0 0 0 6.9-9.494 60.189 60.189 0 0 0 3.025-5.586 55.113 55.113 0 0 0 2.59-6.457c.07-.219.149-.435.228-.651a.857.857 0 0 1 .072-.172.156.156 0 0 1 .165-.076.154.154 0 0 1 .136.153 1.208 1.208 0 0 1-.03.247 41.621 41.621 0 0 1-3.692 10.687 55.421 55.421 0 0 1-5.945 9.277 51.3 51.3 0 0 1-3.756 4.29.659.659 0 0 1-1.076-.039 25.632 25.632 0 0 0-2.469-2.6 23.451 23.451 0 0 0-7.872-4.9 18.476 18.476 0 0 0-2.726-.739c-.092-.018-.187-.041-.284-.064a.183.183 0 0 1-.154-.232.192.192 0 0 1 .235-.162c.34.034.683.069 1.025.119a19.121 19.121 0 0 1 7.152 2.63 25.529 25.529 0 0 1 4.789 3.737c.298.293.572.6.887.932z" transform="translate(-4950.116 -2032.131)"/>
                <path id="Path_131831" data-name="Path 131831" class="cls-3" d="m4917.581 1958.142-.05.162a75.638 75.638 0 0 1-2.547 7.533 88.99 88.99 0 0 1-4.661 10.15 49.043 49.043 0 0 1-4.826 7.309c-.04.05-.08.1-.123.146a.178.178 0 0 1-.229.052c-.107-.059-.1-.152-.062-.246.023-.058.058-.111.087-.167q2.38-4.418 4.6-8.913c1.7-3.45 3.308-6.939 4.863-10.449q1.22-2.755 2.449-5.506a2.548 2.548 0 0 1 .121-.255.2.2 0 0 1 .274-.094c.098.044.132.124.104.278z" transform="translate(-4878.87 -1951.51)"/>
                <path id="Path_131832" data-name="Path 131832" class="cls-3" d="M4766.558 2069.648c.338-.331.632-.617.92-.906.095-.094.2-.056.3-.037a34.23 34.23 0 0 1 3.533.845 27.445 27.445 0 0 1 5.084 2.037 17.392 17.392 0 0 1 5.349 4.216c.168.2.326.413.484.625.113.152.218.31.341.491-.205.363-.413.732-.617 1.1-.115-.028-.14-.1-.176-.164a13.951 13.951 0 0 0-4.16-4.175 23.786 23.786 0 0 0-5.921-2.805 31.78 31.78 0 0 0-5.137-1.227z" transform="translate(-4757.514 -2049.057)"/>
                <path id="Path_131833" data-name="Path 131833" class="cls-3" d="M4864.777 1925.819c-.139.41-.267.791-.4 1.195a26.7 26.7 0 0 0-10.759-2.237c.128-.4.3-.755.464-1.139a32.234 32.234 0 0 1 10.695 2.181z" transform="translate(-4833.795 -1921.404)"/>
                <path id="Path_131834" data-name="Path 131834" class="cls-3" d="M4810.778 2011.66a9.635 9.635 0 0 1 .572-.982c.07-.117.194-.069.293-.053.5.078 1 .148 1.495.247a30.255 30.255 0 0 1 4.553 1.246 24.118 24.118 0 0 1 2.973 1.344.623.623 0 0 1 .278.2c-.142.328-.3.663-.5 1.023a26.318 26.318 0 0 0-9.664-3.025z" transform="translate(-4796.261 -1997.942)"/>
                <path id="Path_131835" data-name="Path 131835" class="cls-3" d="M4895.855 1961.792c.146-.383.277-.721.413-1.071a13.383 13.383 0 0 1 1.327.439 16.529 16.529 0 0 1 5.255 3.034 14.138 14.138 0 0 1 1.3 1.3.284.284 0 0 1 .054.363c-.16.3-.3.615-.476.975a15.07 15.07 0 0 0-7.873-5.04z" transform="translate(-4870.808 -1954.042)"/>
                <path id="Path_131836" data-name="Path 131836" class="cls-11" d="M4754.745 2121.3a15.623 15.623 0 0 1 5.658 1.2 9.369 9.369 0 0 1 2.623 1.624c.1.084.263.156.165.326s-.242.075-.374.049a35.694 35.694 0 0 1-3.517-.989q-2.354-.753-4.7-1.512c-.245-.079-.484-.17-.726-.261-.114-.043-.205-.111-.185-.254s.129-.179.255-.18c.268-.003.535-.003.801-.003z" transform="translate(-4746.233 -2095.369)"/>
                <path id="Path_131837" data-name="Path 131837" class="cls-3" d="M4892.63 2001.4c.17-.365.316-.707.507-1.026a14.638 14.638 0 0 1 6.136 4.67l-.583 1.158a12.139 12.139 0 0 0-2.694-2.844 16.654 16.654 0 0 0-3.366-1.958z" transform="translate(-4867.981 -1988.939)"/>
                <path id="Path_131838" data-name="Path 131838" class="cls-3" d="m4822.1 2049.417.682-1a23.16 23.16 0 0 1 6.8 3.039c-.19.34-.375.666-.577 1.029a23.14 23.14 0 0 0-6.905-3.068z" transform="translate(-4806.186 -2031.226)"/>
                <path id="Path_131839" data-name="Path 131839" class="cls-3" d="m4847.684 1951.984-.42 1.1c-.921-.191-1.828-.4-2.747-.531s-1.853-.2-2.812-.294l.512-1.084a31.311 31.311 0 0 1 5.467.809z" transform="translate(-4823.359 -1945.636)"/>
                <path id="Path_131840" data-name="Path 131840" class="cls-3" d="M4949.181 1947.5c.137-.4.268-.79.411-1.221a9.23 9.23 0 0 1 3.251 2.739c-.18.391-.354.776-.547 1.195a8.187 8.187 0 0 0-1.431-1.525 13.679 13.679 0 0 0-1.684-1.188z" transform="translate(-4917.53 -1941.334)"/>
                <path id="Path_131841" data-name="Path 131841" class="cls-3" d="M4888.3 2083.89a12.264 12.264 0 0 0-2.787-3.126l.588-1.028a4.619 4.619 0 0 1 .7.565 13.516 13.516 0 0 1 2 2.23.311.311 0 0 1 .029.394c-.169.304-.33.617-.53.965z" transform="translate(-4861.747 -2058.787)"/>
                <path id="Path_131842" data-name="Path 131842" class="cls-3" d="M4830.243 1983.6a11.269 11.269 0 0 1-.485 1.072 34.993 34.993 0 0 0-3.777-.587c.205-.386.385-.73.575-1.086a28.911 28.911 0 0 1 3.687.601z" transform="translate(-4809.583 -1973.648)"/>
                <path id="Path_131843" data-name="Path 131843" class="cls-3" d="m4790.184 2042.7.762-1.028a24.871 24.871 0 0 1 2.667.515c-.236.344-.455.668-.688 1.009a30.496 30.496 0 0 0-2.741-.496z" transform="translate(-4778.215 -2025.286)"/>
                <path id="Path_131844" data-name="Path 131844" class="cls-3" d="M4868.666 1991.15c-.174.354-.335.689-.513 1.049a41.72 41.72 0 0 0-2.211-.7l.489-1.077a17.547 17.547 0 0 1 2.235.728z" transform="translate(-4844.597 -1980.183)"/>
                <g id="Group_55082" data-name="Group 55082" transform="translate(3.072)">
                    <path id="Path_131845" data-name="Path 131845" class="cls-13" d="M4790.317 2147.985z" transform="translate(-4781.402 -2118.852)"/>
                    <path id="Path_131846" data-name="Path 131846" class="cls-13" d="M4939.561 2192.83z" transform="translate(-4912.167 -2158.321)"/>
                    <path id="Path_131847" data-name="Path 131847" class="cls-13" d="M4934.352 2193.889z" transform="translate(-4907.606 -2159.252)"/>
                    <path id="Path_131848" data-name="Path 131848" class="cls-13" d="M4936.956 2193.355z" transform="translate(-4909.886 -2158.783)"/>
                    <path id="Path_131849" data-name="Path 131849" class="cls-13" d="M4792.4 2148.506z" transform="translate(-4783.232 -2119.31)"/>
                    <path id="Path_131850" data-name="Path 131850" class="cls-13" d="M4748.055 2121.9z" transform="translate(-4744.367 -2095.893)"/>
                    <path id="Path_131851" data-name="Path 131851" class="cls-13" d="M4780.595 1922.9c-.271-.364-.573-.7-.874-1.041a.422.422 0 0 1-.116-.446c.114-.4.135-.818.266-1.214a.471.471 0 0 0-.143-.368 18.378 18.378 0 0 0-1.244-1.478.393.393 0 0 1-.118-.416c.11-.434.175-.879.282-1.315a.7.7 0 0 0-.174-.678 22.349 22.349 0 0 0-4.024-3.777 18.625 18.625 0 0 0-8.11-3.5 16.51 16.51 0 0 0-5.55.064 18.8 18.8 0 0 0-5.139 1.7 1.682 1.682 0 0 1-1.265.12l-.157-.042a2.649 2.649 0 0 1-1.5-.845 1.874 1.874 0 0 0-.279-.262 14.553 14.553 0 0 0-4.055-2.456 25.856 25.856 0 0 0-7.937-1.812 40.107 40.107 0 0 0-5.064-.065c-.355.016-.706.048-1.066.073-.062.134-.12.256-.175.38-1.373 3.125-2.844 6.207-4.471 9.217a64.794 64.794 0 0 1-4.659 7.491 27.9 27.9 0 0 1-3.355 3.88 11.224 11.224 0 0 1-2.443 1.829c-.27.141-.562.235-.9.381a31.313 31.313 0 0 1 3.751.364 9.6 9.6 0 0 1-3.118 2.071c.55 0 1.083.085 1.619.1a6.8 6.8 0 0 1 .881.08c.179.038.384-.043.547.092h.207c.038 0 .084.006.055.065a4.452 4.452 0 0 1-.869.726 8.491 8.491 0 0 1-2.132 1.2c-.015.005-.026.028-.066.079.544-.032 1.058.076 1.574.063.394-.037.781.069 1.173.066a.2.2 0 0 1 .14.064 1.533 1.533 0 0 0 .542.059 2.878 2.878 0 0 1 1.009.128 6.726 6.726 0 0 0 .945.162c.558.1 1.112.2 1.663.327a.7.7 0 0 0 .127.007c.1.008.207-.036.282.062.111.008.233-.037.323.064.09 0 .191-.026.26.063.09 0 .188-.027.257.062.1 0 .205-.033.262.087a28.246 28.246 0 0 1 5.576 2.08 18.643 18.643 0 0 1 3.549 2.313 10.683 10.683 0 0 1 1.606 1.614.478.478 0 0 0 .2.155 8.743 8.743 0 0 0 2.379.64.535.535 0 0 0 .336-.055 15.554 15.554 0 0 1 3.4-1.31c.058-.119.167-.079.26-.083.09-.1.212-.056.323-.063.09-.109.214-.052.325-.063.089-.1.217-.047.328-.062l1.021-.123c.088-.09.2-.062.3-.062.6 0 1.2-.011 1.8 0a2.809 2.809 0 0 1 .875.123c.5.113 1.014.168 1.516.287a18.023 18.023 0 0 1 4.967 2.027 25.189 25.189 0 0 1 3.477 2.474 29.564 29.564 0 0 1 2.262 2.093 30.009 30.009 0 0 1 3.1 3.709 1.576 1.576 0 0 0 .114.14c.121-.021.169-.11.235-.173 1-.934 1.912-1.945 2.816-2.963a62.71 62.71 0 0 0 5.047-6.513 54.258 54.258 0 0 0 3.9-6.757 44.1 44.1 0 0 0 2.291-5.731c.434-1.352.768-2.727 1.068-4.111.117-.548.105-.545-.233-.997zm-15.895 6.323a3.534 3.534 0 0 1 .224.293 3.534 3.534 0 0 0-.224-.296zm-2.238-.952zm-1.593.433-.9.245c-.211 0-.423 0-.634.014a4.527 4.527 0 0 1-.819-.066 4.527 4.527 0 0 0 .819.066c.211-.01.423-.01.634-.014l.9-.245c.249-.1.5-.2.747-.286-.251.082-.497.182-.746.282zm-4.777-.757a1.389 1.389 0 0 0-.253-.275c-.1-.187-.194-.375-.291-.56.1.186.194.373.291.56a1.4 1.4 0 0 1 .253.275 1.964 1.964 0 0 0 .372.3 1.964 1.964 0 0 1-.372-.303zm-.7-1.261a1.817 1.817 0 0 0-.1-.166 2.117 2.117 0 0 0-.9-.726 2.117 2.117 0 0 1 .9.726 1.817 1.817 0 0 1 .097.163zm1.407 1.739-.057-.025zm.235.087c-.031-.009-.06-.02-.091-.031.027.007.057.019.087.027zm.344.148c.077.021.152.041.226.063-.074-.022-.149-.042-.226-.063a.276.276 0 0 0-.05-.039.276.276 0 0 1 .046.036zm-.1-.068-.025-.011zm-.174-.058h-.01zm-6.527 1.516-.027-.237c.007.076.015.155.025.233zm-.021-1.089c.009-.077.017-.154.032-.232s.028-.163.045-.246.038-.164.063-.247l.086-.283c-.029.093-.06.188-.086.283a3.879 3.879 0 0 0-.107.493c-.011.081-.026.151-.035.228zm.721 3.029a5.525 5.525 0 0 0 1.2 1.5 2.239 2.239 0 0 0 .5.49 2.239 2.239 0 0 1-.5-.49 5.525 5.525 0 0 1-1.2-1.5 6.133 6.133 0 0 1-.605-1.473 6.133 6.133 0 0 0 .603 1.469zm.031-5.133c.03-.045.065-.088.094-.13-.031.039-.066.082-.096.127zm.449-.529.114-.1zm.243-.208a7.33 7.33 0 0 1 .107-.079.848.848 0 0 0-.107.075zm2.833 8.952a3.5 3.5 0 0 0 .607.273 3.522 3.522 0 0 1-.607-.273 9.008 9.008 0 0 1-1.134-.6 9.008 9.008 0 0 0 1.131.596zm2.872.726a2.452 2.452 0 0 0 .743.051 2.452 2.452 0 0 1-.743-.051 8.821 8.821 0 0 1-1.433-.236 8.821 8.821 0 0 0 1.428.233zm.946.043h-.133zm.471 0h-.067c.019-.002.045-.003.064-.006zm.2-.058a.487.487 0 0 1-.164.053.487.487 0 0 0 .159-.058zm1.791-.385c.032 0 .064 0 .1-.009-.034.007-.065.006-.1.009s-.089.029-.135.042c.041-.019.085-.033.13-.048zm2.517-6.925.138.058c-.054-.031-.098-.046-.143-.064zm.254.115a.954.954 0 0 1 .1.055.664.664 0 0 0-.105-.061zm.469.3.035.025zm.925 1.413a2.256 2.256 0 0 0-.077-.251 2.93 2.93 0 0 0-.163-.356 2.93 2.93 0 0 1 .163.356 2.256 2.256 0 0 1 .077.251 2.534 2.534 0 0 1 .089.667 2.35 2.35 0 0 1-.014.237 2.35 2.35 0 0 0 .014-.237 2.534 2.534 0 0 0-.094-.668zm-11.815-18.576a2.506 2.506 0 0 1 .12-.256.2.2 0 0 1 .271-.093c.106.043.141.123.11.278-.005.021-.027.091-.047.161a77.705 77.705 0 0 1-2.547 7.533 88.848 88.848 0 0 1-4.666 10.15 49.1 49.1 0 0 1-4.824 7.309c-.041.049-.079.1-.125.145a.176.176 0 0 1-.229.053c-.1-.058-.1-.152-.061-.246.025-.057.059-.112.089-.167q2.378-4.418 4.6-8.913c1.7-3.449 3.3-6.939 4.859-10.449q1.221-2.757 2.445-5.508zm-13.052 4.729a14.653 14.653 0 0 1 6.139 4.669l-.586 1.158a12.142 12.142 0 0 0-2.694-2.844 16.632 16.632 0 0 0-3.367-1.959c.164-.365.314-.707.503-1.026zm-.108-3.684.414-1.07a13.166 13.166 0 0 1 1.325.438 16.55 16.55 0 0 1 5.257 3.035 13.872 13.872 0 0 1 1.3 1.3.285.285 0 0 1 .056.364c-.156.3-.3.615-.476.974a15.078 15.078 0 0 0-7.879-5.043zm2.018 16a.309.309 0 0 1 .028.394c-.182.3-.347.617-.539.965a12.3 12.3 0 0 0-2.786-3.127l.587-1.028a4.789 4.789 0 0 1 .7.565 13.5 13.5 0 0 1 2.004 2.224zm5-18.8a9.235 9.235 0 0 1 3.25 2.739c-.178.391-.356.776-.544 1.195a8.282 8.282 0 0 0-1.437-1.526 13.732 13.732 0 0 0-1.68-1.186c.124-.406.255-.792.401-1.226zm-11.779-2.715a32.268 32.268 0 0 1 10.7 2.181c-.14.41-.269.792-.4 1.2a26.713 26.713 0 0 0-10.761-2.238c.119-.412.292-.763.451-1.147zm-1.426 3.3a31.4 31.4 0 0 1 5.465.814c-.146.385-.273.724-.416 1.095-.922-.19-1.827-.4-2.749-.531s-1.851-.2-2.812-.294c.17-.381.329-.721.502-1.087zm5.211 5.433c-.173.354-.335.69-.511 1.048a43.48 43.48 0 0 0-2.209-.7c.164-.362.318-.708.486-1.077a17.472 17.472 0 0 1 2.224.726zm-7.094-1.617a28.956 28.956 0 0 1 3.688.6 10.386 10.386 0 0 1-.486 1.07 35.148 35.148 0 0 0-3.776-.586c.192-.385.375-.729.564-1.086zm-1.888 3.386c.072-.118.2-.069.3-.054.5.078 1 .148 1.5.249a30.1 30.1 0 0 1 4.552 1.245 23.747 23.747 0 0 1 2.971 1.344.614.614 0 0 1 .28.2 10.909 10.909 0 0 1-.5 1.024 26.362 26.362 0 0 0-9.663-3.025 10.7 10.7 0 0 1 .55-.985zm8.315 7.5c-.193.34-.375.666-.577 1.028a23.192 23.192 0 0 0-6.905-3.07l.681-1a23.162 23.162 0 0 1 6.792 3.036zm-10.672-3.848a24.64 24.64 0 0 1 2.667.514c-.236.344-.455.668-.689 1.01-.9-.192-1.781-.373-2.741-.5.266-.37.507-.696.754-1.033zm-2.766 3.3c.092-.094.2-.055.3-.036a34.248 34.248 0 0 1 3.536.844 27.51 27.51 0 0 1 5.086 2.038 17.352 17.352 0 0 1 5.345 4.215c.169.2.329.414.488.625.111.151.215.31.342.491l-.617 1.1c-.117-.028-.14-.1-.177-.164a13.879 13.879 0 0 0-4.164-4.174 23.688 23.688 0 0 0-5.918-2.8 31.65 31.65 0 0 0-5.138-1.223c.322-.347.615-.633.907-.925zm7 9.4c-.094.166-.245.075-.375.049a35.854 35.854 0 0 1-3.519-.989q-2.352-.754-4.7-1.513c-.245-.079-.483-.17-.725-.26-.117-.044-.208-.112-.187-.255s.129-.178.258-.179h.8a15.609 15.609 0 0 1 5.657 1.2 9.387 9.387 0 0 1 2.622 1.623c.084.075.247.146.155.315zm17.859 3.25a18.528 18.528 0 0 0-5.47 1.09 17.965 17.965 0 0 0-2.442 1.053 1.36 1.36 0 0 1-.9.144 9.385 9.385 0 0 1-2.369-.685 1.148 1.148 0 0 1-.485-.395 20.541 20.541 0 0 0-5.75-5.414 26.079 26.079 0 0 0-5.194-2.621 34.005 34.005 0 0 0-3.751-1.125c-.248-.062-.381-.183-.384-.362a.4.4 0 0 1 .486-.406c.438.1.882.182 1.322.286a26.8 26.8 0 0 1 8.366 3.493 22.489 22.489 0 0 1 5.416 4.782 3.093 3.093 0 0 1 .266.356 1.047 1.047 0 0 0 .61.47 9.958 9.958 0 0 0 1.56.382.642.642 0 0 0 .426-.1 20.9 20.9 0 0 1 3.448-1.385 20.253 20.253 0 0 1 3.747-.772 18.731 18.731 0 0 1 5.619.268 22.231 22.231 0 0 1 8.275 3.578 22.576 22.576 0 0 1 2.6 2.053.442.442 0 0 0 .205.133c.33-.416.669-.833.992-1.259a70.078 70.078 0 0 0 5.86-9.045 61.317 61.317 0 0 0 4.908-11.8 2.475 2.475 0 0 1 .076-.239.423.423 0 0 1 .441-.245.411.411 0 0 1 .316.419 1.306 1.306 0 0 1-.045.213 53.452 53.452 0 0 1-2.108 6.522 59.273 59.273 0 0 1-3.028 6.485 62.863 62.863 0 0 1-5.726 8.865c-.373.473-.751.941-1.13 1.405a.665.665 0 0 1-1.058.082c-.435-.391-.846-.8-1.3-1.173a22.158 22.158 0 0 0-9.25-4.629 17.335 17.335 0 0 0-4.563-.432zm29.414-14.613a41.6 41.6 0 0 1-3.694 10.687 55.4 55.4 0 0 1-5.942 9.278 51.638 51.638 0 0 1-3.758 4.29.658.658 0 0 1-1.075-.039 25.674 25.674 0 0 0-2.467-2.6 23.449 23.449 0 0 0-7.872-4.9 18.3 18.3 0 0 0-2.726-.74 5.41 5.41 0 0 1-.284-.064.186.186 0 0 1-.156-.233.2.2 0 0 1 .237-.163c.34.034.681.07 1.023.119a19.127 19.127 0 0 1 7.153 2.631 25.572 25.572 0 0 1 4.789 3.737c.294.289.566.6.885.928.279-.314.54-.6.8-.9a67.019 67.019 0 0 0 6.9-9.493 59.856 59.856 0 0 0 3.022-5.586 55 55 0 0 0 2.591-6.457c.07-.219.151-.435.228-.651a.771.771 0 0 1 .073-.173.154.154 0 0 1 .165-.075.149.149 0 0 1 .134.152 1.016 1.016 0 0 1-.04.244z" transform="translate(-4718.322 -1905.018)"/>
                    <path id="Path_131852" data-name="Path 131852" class="cls-13" d="M4788.232 2147.464z" transform="translate(-4779.573 -2118.393)"/>
                    <path id="Path_131853" data-name="Path 131853" class="cls-13" d="M4785.627 2146.926z" transform="translate(-4777.291 -2117.919)"/>
                </g>
                <path id="Path_131854" data-name="Path 131854" class="cls-12" d="M4953.479 2190.858c-.992-.082-1.984-.075-2.979-.063.088-.089.2-.06.3-.06.6 0 1.2-.012 1.8 0a2.766 2.766 0 0 1 .879.123z" transform="translate(-4918.686 -2156.471)"/>
                <path id="Path_131855" data-name="Path 131855" class="cls-12" d="M4739.438 2139.7a6.209 6.209 0 0 1-1.314-.129c.395-.038.782.068 1.174.065a.2.2 0 0 1 .14.064z" transform="translate(-4732.599 -2111.44)"/>
                <path id="Path_131856" data-name="Path 131856" class="cls-12" d="M4754.123 2141.3a3.553 3.553 0 0 1-1.01-.129 2.832 2.832 0 0 1 1.01.129z" transform="translate(-4745.732 -2112.857)"/>
                <path id="Path_131857" data-name="Path 131857" class="cls-12" d="M4748.313 2121.946c-.092-.011-.193.026-.265-.064h.209c.043.002.086.005.056.064z" transform="translate(-4741.3 -2095.879)"/>
                <path id="Path_131858" data-name="Path 131858" class="cls-12" d="M4785.95 2146.969c-.114 0-.232.025-.328-.066.109.009.235-.038.328.066z" transform="translate(-4774.218 -2117.898)"/>
                <path id="Path_131859" data-name="Path 131859" class="cls-12" d="M4939.889 2192.294c-.1.088-.221.057-.333.064.094-.108.218-.049.333-.064z" transform="translate(-4909.097 -2157.847)"/>
                <path id="Path_131860" data-name="Path 131860" class="cls-12" d="M4937.278 2192.8c-.1.09-.216.061-.329.065.092-.113.217-.052.329-.065z" transform="translate(-4906.813 -2158.289)"/>
                <path id="Path_131861" data-name="Path 131861" class="cls-12" d="M4934.675 2193.325c-.094.094-.213.061-.327.066.09-.107.215-.057.327-.066z" transform="translate(-4904.536 -2158.753)"/>
                <path id="Path_131862" data-name="Path 131862" class="cls-12" d="M4783.65 2146.448a.374.374 0 0 1-.286-.063c.099.007.209-.038.286.063z" transform="translate(-4772.241 -2117.44)"/>
                <path id="Path_131863" data-name="Path 131863" class="cls-12" d="M4788.49 2147.505c-.093-.006-.193.03-.263-.064.092.002.194-.027.263.064z" transform="translate(-4776.502 -2118.371)"/>
                <path id="Path_131864" data-name="Path 131864" class="cls-12" d="M4790.575 2148.028c-.092 0-.192.029-.262-.064.093.002.194-.03.262.064z" transform="translate(-4778.331 -2118.831)"/>
                <path id="Path_131865" data-name="Path 131865" class="cls-12" d="M4792.666 2148.573c-.087-.04-.2.009-.265-.085.099.003.209-.037.265.085z" transform="translate(-4780.161 -2119.292)"/>
                <path id="Path_131866" data-name="Path 131866" class="cls-12" d="M4932.511 2193.865c-.066.1-.179.048-.264.081.053-.118.168-.079.264-.081z" transform="translate(-4902.694 -2159.229)"/>
                <path id="Path_131867" data-name="Path 131867" class="cls-3" d="M4988.627 2036.613c.127-.387.254-.763.364-1.143a.352.352 0 0 1 .27-.268 17.024 17.024 0 0 1 2.745-.668 16 16 0 0 1 3.12-.2 17.6 17.6 0 0 1 6.442 1.514 19.988 19.988 0 0 1 2.1 1.074c-.09.363-.178.725-.267 1.095-.148.015-.233-.076-.327-.131a17.778 17.778 0 0 0-4.474-1.886 15.3 15.3 0 0 0-4.755-.507 15.606 15.606 0 0 0-5 1.1.206.206 0 0 1-.218.02z" transform="translate(-4952.092 -2018.821)"/>
                <path id="Path_131868" data-name="Path 131868" class="cls-3" d="M5062.8 2076.2a1.133 1.133 0 0 1-.312-.268 26.965 26.965 0 0 0-3.868-3.253 18.234 18.234 0 0 0-5.89-2.742 1.485 1.485 0 0 1-.149-.057 9.326 9.326 0 0 1 .241-1.057 2.542 2.542 0 0 1 .693.158 20.643 20.643 0 0 1 6.4 3.219 29.373 29.373 0 0 1 3.128 2.654.313.313 0 0 1 .094.408c-.127.301-.225.616-.337.938z" transform="translate(-5008.129 -2049.179)"/>
                <path id="Path_131869" data-name="Path 131869" class="cls-3" d="M4987.431 2064.7a9.517 9.517 0 0 1-.26 1.092 15.218 15.218 0 0 0-7.85.8c-.078-.113 0-.194.03-.275.093-.3.21-.591.3-.89a.372.372 0 0 1 .276-.265 15.524 15.524 0 0 1 2.507-.558 16 16 0 0 1 3.376-.108 11.364 11.364 0 0 1 1.621.204z" transform="translate(-4943.911 -2045.337)"/>
                <path id="Path_131870" data-name="Path 131870" class="cls-3" d="M5119.956 2065.65a28.447 28.447 0 0 0-3.658-3.021c.1-.385.193-.757.3-1.162a25.914 25.914 0 0 1 3.706 2.919c-.091.414-.204.814-.348 1.264z" transform="translate(-5063.96 -2042.708)"/>
            </g>
            <path id="Path_131871" data-name="Path 131871" class="cls-3" d="M5145.606 1984.363a26.119 26.119 0 0 1 3.708 2.919c-.092.415-.206.811-.344 1.264a28.639 28.639 0 0 0-3.659-3.021c.098-.386.189-.757.295-1.162z" transform="translate(-5089.383 -1974.849)"/>
            <path id="Path_131872" data-name="Path 131872" class="cls-3" d="M5092.055 1997.745a.319.319 0 0 1 .1.408c-.129.3-.228.62-.343.937a1.1 1.1 0 0 1-.311-.268 26.914 26.914 0 0 0-3.869-3.253 18.223 18.223 0 0 0-5.889-2.743c-.039-.01-.079-.028-.151-.055a9.773 9.773 0 0 1 .242-1.058 2.672 2.672 0 0 1 .7.158 20.689 20.689 0 0 1 6.4 3.22 29.26 29.26 0 0 1 3.121 2.654z" transform="translate(-5033.548 -1981.32)"/>
            <path id="Path_131873" data-name="Path 131873" class="cls-3" d="M5018 1958.366a.358.358 0 0 1 .269-.269 17.319 17.319 0 0 1 2.748-.668 15.974 15.974 0 0 1 3.117-.2 17.586 17.586 0 0 1 6.446 1.514 19.613 19.613 0 0 1 2.1 1.073c-.088.363-.177.725-.265 1.094-.147.016-.232-.075-.327-.13a17.755 17.755 0 0 0-4.477-1.888 15.3 15.3 0 0 0-4.758-.506 15.562 15.562 0 0 0-5 1.1.206.206 0 0 1-.212.021c.122-.385.249-.76.359-1.141z" transform="translate(-4977.515 -1950.962)"/>
            <path id="Path_131874" data-name="Path 131874" class="cls-3" d="M5008.361 1989.212c.1-.3.213-.591.3-.889a.374.374 0 0 1 .276-.266 15.653 15.653 0 0 1 2.508-.557 15.923 15.923 0 0 1 3.378-.108 11.255 11.255 0 0 1 1.615.2 9.119 9.119 0 0 1-.26 1.094 15.205 15.205 0 0 0-7.85.8c-.076-.111.009-.193.033-.274z" transform="translate(-4969.332 -1977.479)"/>
        </g>
        <path id="Path_131875" data-name="Path 131875" class="cls-3" d="M5912.453 1663.075a3.751 3.751 0 0 1-4.3-.629c-.812-.787-1.563-1.627-2.344-2.444l-2.289-2.405a4.823 4.823 0 0 0-.475-.566 17.934 17.934 0 0 1-.381-.35c-.706-.675-1.34-1.413-2.009-2.124-1.088-1.17-2.24-2.291-3.282-3.505-.457-.536-.976-1.024-1.471-1.53a158.1 158.1 0 0 1-2.152-2.266c-1.123-1.2-2.3-2.354-3.37-3.6-.46-.535-.986-1.017-1.474-1.53-.646-.678-1.288-1.362-1.932-2.042-1.22-1.283-2.464-2.54-3.632-3.863-.47-.53-.981-1.025-1.476-1.531-.743-.758-1.471-1.534-2.2-2.309-1.108-1.185-2.271-2.32-3.328-3.55a12.825 12.825 0 0 0-.413-.458c-.347-.364-.71-.713-1.061-1.072s-.71-.746-1.062-1.121-.693-.737-1.048-1.1c-1.161-1.189-2.281-2.421-3.4-3.648-.457-.5-.572-.547-1.159-.211-2.373 1.351-4.739 2.711-7.112 4.059l-1.583.9q-1.938 1.1-3.881 2.194-1.438.814-2.871 1.629c-2.28 1.3-4.543 2.629-6.834 3.914a723.799 723.799 0 0 0-7.169 4.092c-2.161 1.247-4.338 2.475-6.512 3.713l-6.461 3.679c-2.34 1.326-4.686 2.637-7.021 3.967-1.99 1.132-3.966 2.285-5.954 3.423-1.512.866-3.032 1.723-4.547 2.579-.847.479-1.7.948-2.555 1.421a.191.191 0 0 1-.035.021.477.477 0 0 0-.219.215 1.482 1.482 0 0 0-.564.269l-1.5.85q-2.632 1.494-5.259 3a3.725 3.725 0 0 1-3.235.352 3.475 3.475 0 0 1-2.416-2.788 3.374 3.374 0 0 1 1.322-3.408 5.677 5.677 0 0 1 .736-.482q4.425-2.521 8.853-5.04 1.157-.662 2.313-1.319 15.144-8.627 30.29-17.251l4.967-2.83 3.869-2.2q11.259-6.411 22.512-12.829a4.011 4.011 0 0 1 3.164-.507 3.912 3.912 0 0 1 1.85 1.147q2.32 2.464 4.65 4.917l6.9 7.284 2.074 2.191q1.676 1.768 3.349 3.537l13.046 13.789.3.317q5.262 5.55 10.523 11.093a4.275 4.275 0 0 1 1.213 2.191 3.621 3.621 0 0 1-1.945 3.765z" transform="translate(-5632.866 -1582.639)"/>
        <path id="Path_131876" data-name="Path 131876" class="cls-9" d="M6375.836 2052.432a15.715 15.715 0 0 1 .076-2.207 12.053 12.053 0 0 1 .624-2.562 9.447 9.447 0 0 1 2.059-3.221 10.576 10.576 0 0 1 3.228-2.362 9.632 9.632 0 0 1 4.1-.935c1.336.015 2.674.023 4.014 0a9.515 9.515 0 0 1 3.7.731 10.2 10.2 0 0 1 5.288 4.67 8.471 8.471 0 0 1 1.131 4.055 13.458 13.458 0 0 1 .117 1.405c-.037.427-.087.484-.536.506-.126.006-.255 0-.383 0h-22.628a2.093 2.093 0 0 1-.79-.08z" transform="translate(-6144.061 -1959.706)"/>
        <path id="Path_131877" data-name="Path 131877" class="cls-9" d="M6033.958 2052.525h-24.037c-.049-.058-.093-.088-.1-.122a9.765 9.765 0 0 1 2.088-7.281 10.7 10.7 0 0 1 6.888-3.916 2.869 2.869 0 0 1 .509-.014c1.614 0 3.229-.005 4.842 0a10.489 10.489 0 0 1 6.8 2.919 10.017 10.017 0 0 1 2.263 3.313 10.726 10.726 0 0 1 .8 4.813 2.092 2.092 0 0 1-.053.288z" transform="translate(-5823.309 -1959.747)"/>
        <path id="Path_131878" data-name="Path 131878" class="cls-14" d="M6386.464 2179.674h-10.774c-.132-.466-.18-19.184-.06-20.11.439-.139 9.55-.2 10.795-.071l.042.043c.014.015.038.029.039.047a2.564 2.564 0 0 1 .037.366q0 9.749-.008 19.5a.926.926 0 0 1-.071.225z" transform="translate(-6143.821 -2063.804)"/>
        <path id="Path_131879" data-name="Path 131879" class="cls-14" d="M6010.069 2159.951h10.688v20.111c-.451.132-9.661.181-10.678.062a.334.334 0 0 1-.044-.043.107.107 0 0 1-.036-.048 4.865 4.865 0 0 1-.037-.49q.01-9.718.022-19.435c.001-.038.037-.073.085-.157z" transform="translate(-5823.48 -2064.27)"/>
        <path id="Path_131880" data-name="Path 131880" class="cls-9" d="M6121.35 2159.925h10.267c.133.464.18 19.16.063 20.11-.44.14-9.044.2-10.289.072l-.042-.043c-.011-.015-.034-.029-.039-.047a2.471 2.471 0 0 1-.035-.3q0-9.779.007-19.558a1.044 1.044 0 0 1 .068-.234z" transform="translate(-5921.012 -2064.247)"/>
        <path id="Path_131881" data-name="Path 131881" class="cls-14" d="M6488.1 2159.944h10.264c.129.468.17 19.3.053 20.11-.437.134-9.182.188-10.281.064-.017-.014-.03-.028-.046-.044s-.034-.03-.034-.048a3.892 3.892 0 0 1-.036-.427q0-9.717.008-19.434a.843.843 0 0 1 .072-.221z" transform="translate(-6242.356 -2064.264)"/>
    </g>
</svg>
