<svg xmlns="http://www.w3.org/2000/svg" width="44" height="40">
    <path d="M23.914-43.538v-19.19h-8.178a16.065 16.065 0 0 1 1.735-7.788q1.735-3.178 6.443-4.8v-8.224a19.971 19.971 0 0 0-7.125 2.305 20.177 20.177 0 0 0-5.638 4.548A20.1 20.1 0 0 0 7.5-70.329 20.759 20.759 0 0 0 6.319-62.6v19.065zm26.394 0v-19.19H42.13a16.065 16.065 0 0 1 1.735-7.788q1.735-3.178 6.443-4.8v-8.224a19.971 19.971 0 0 0-7.125 2.305 20.177 20.177 0 0 0-5.638 4.548 20.1 20.1 0 0 0-3.655 6.355 20.759 20.759 0 0 0-1.178 7.732v19.065z" transform="translate(-6.308 83.538)" style="fill:#3bbfad"/>
</svg>
