<svg xmlns="http://www.w3.org/2000/svg" width="36" height="36">
    <defs>
        <clipPath id="a">
            <path data-name="Rectangle 7547" style="fill:#28346b;stroke:#707070" d="M0 0h24v25.5H0z"/>
        </clipPath>
    </defs>
    <g data-name="Group 55781">
        <rect data-name="Rectangle 7545" width="36" height="36" rx="12" style="fill:#07074e"/>
        <g data-name="Mask Group 53539" transform="translate(6 5.499)" style="clip-path:url(#a)">
            <path data-name="Path 133187" d="M8.477 1.507a25.991 25.991 0 0 1 3.391.094 4.368 4.368 0 0 1 1.6.283 3.308 3.308 0 0 1 1.6 1.6 4.368 4.368 0 0 1 .283 1.6c0 .848.094 1.13.094 3.391a25.99 25.99 0 0 1-.094 3.391 4.368 4.368 0 0 1-.283 1.6 3.308 3.308 0 0 1-1.6 1.6 4.368 4.368 0 0 1-1.6.283c-.848 0-1.13.094-3.391.094a25.99 25.99 0 0 1-3.391-.094 4.368 4.368 0 0 1-1.6-.283 3.308 3.308 0 0 1-1.6-1.6 4.368 4.368 0 0 1-.283-1.6c0-.848-.094-1.13-.094-3.391A25.991 25.991 0 0 1 1.6 5.086a4.368 4.368 0 0 1 .283-1.6 3.383 3.383 0 0 1 .659-.942 1.592 1.592 0 0 1 .942-.659 4.368 4.368 0 0 1 1.6-.283 25.991 25.991 0 0 1 3.391-.094M8.477 0a27.829 27.829 0 0 0-3.485.094A5.815 5.815 0 0 0 2.92.471a3.687 3.687 0 0 0-1.507.942A3.687 3.687 0 0 0 .471 2.92a4.291 4.291 0 0 0-.377 2.072A27.829 27.829 0 0 0 0 8.477a27.829 27.829 0 0 0 .094 3.485 5.815 5.815 0 0 0 .377 2.072 3.687 3.687 0 0 0 .942 1.507 3.687 3.687 0 0 0 1.507.942 5.814 5.814 0 0 0 2.072.377 27.829 27.829 0 0 0 3.485.094 27.829 27.829 0 0 0 3.485-.094 5.815 5.815 0 0 0 2.072-.377 3.952 3.952 0 0 0 2.449-2.449 5.814 5.814 0 0 0 .377-2.072c0-.942.094-1.224.094-3.485a27.829 27.829 0 0 0-.094-3.485 5.815 5.815 0 0 0-.377-2.072 3.687 3.687 0 0 0-.942-1.507 3.687 3.687 0 0 0-1.508-.942 5.815 5.815 0 0 0-2.072-.377A27.829 27.829 0 0 0 8.477 0m0 4.144a4.263 4.263 0 0 0-4.333 4.333 4.332 4.332 0 1 0 4.333-4.333m0 7.158a2.775 2.775 0 0 1-2.826-2.825 2.775 2.775 0 0 1 2.826-2.826A2.775 2.775 0 0 1 11.3 8.477 2.775 2.775 0 0 1 8.477 11.3M13 2.92a1.036 1.036 0 1 0 1.036 1.036A1.045 1.045 0 0 0 13 2.92" transform="translate(3.524 4.273)" style="fill:#fffcfc;fill-rule:evenodd"/>
        </g>
    </g>
</svg>
