<svg xmlns="http://www.w3.org/2000/svg" width="140" height="35">
    <defs>
        <clipPath id="clip-path">
            <path id="Rectangle_3226" data-name="Rectangle 3226" style="fill:none;stroke:#07074e" d="M0 0h140v35H0z"/>
        </clipPath>
        <style>
            .cls-5{fill:#07074e}.cls-6{fill:#3abfac}
        </style>
    </defs>
    <g id="logo_eduhive" style="isolation:isolate">
        <g id="Mask_Group_77" data-name="Mask Group 77" style="clip-path:url(#clip-path)">
            <g id="Group_9134" data-name="Group 9134" transform="translate(2.799 2.486)">
                <g id="Group_9132" data-name="Group 9132">
                    <path id="Path_50681" data-name="Path 50681" d="M169.841 223.318a14.9 14.9 0 0 0-14.913 14.882v.051A13.065 13.065 0 0 1 168 225.238a13.251 13.251 0 0 1 1.865.133 13.075 13.075 0 0 1 11.035 10.817 11.265 11.265 0 0 1 .176 1.765v.484q-.006.252-.022.5c0-.047 0-.094.005-.141a9.348 9.348 0 0 1-18.678-.6 7.457 7.457 0 0 1 14.913 0 9.348 9.348 0 0 0-18.639-1.035q-.049.566-.05 1.144c0 .128 0 .255.006.382 0 .047 0 .095.005.142a13.073 13.073 0 0 0 26.064.817q.049-.506.064-1.021.006-.214.006-.428a14.9 14.9 0 0 0-14.909-14.879z" transform="translate(-154.928 -223.318)" style="fill:#3bbfad"/>
                    <path id="Path_50682" data-name="Path 50682" class="cls-5" d="M171.677 252.009a13.063 13.063 0 0 1-13.059-12.531 8.406 8.406 0 0 1-.015-.391v-.482a11.185 11.185 0 0 1 .15-1.609c-.041.27-.072.542-.1.816a9.347 9.347 0 0 1 18.638 1.035 7.456 7.456 0 0 1-14.912 0 9.347 9.347 0 0 0 18.676.6c.006-.166.01-.332.01-.5q0-.613-.057-1.21-.041-.454-.114-.9a13.072 13.072 0 0 0-11.036-10.814 13.259 13.259 0 0 0-1.864-.133 13.063 13.063 0 0 0-13.07 13q0 .742.076 1.465a14.916 14.916 0 0 0 29.676-.067 13.066 13.066 0 0 1-12.999 11.721z" transform="translate(-154.928 -223.892)"/>
                </g>
                <g id="Group_9133" data-name="Group 9133" transform="translate(37.245 4.971)">
                    <path id="Path_50683" data-name="Path 50683" class="cls-5" d="M213.1 230.321v2.366h-8.762v6.1h7.9v2.313h-7.9v6.1h8.762v2.364h-11.237v-19.243z" transform="translate(-201.863 -230.106)"/>
                    <path id="Path_50684" data-name="Path 50684" class="cls-5" d="M225.343 249.993a5.788 5.788 0 0 1-4.434-2.042 7.676 7.676 0 0 1 0-9.944 5.79 5.79 0 0 1 4.434-2.042 5.693 5.693 0 0 1 2.648.618 4.643 4.643 0 0 1 1.841 1.641h.107l-.107-1.829v-6.074h2.468v19.242h-2.364v-1.827h-.107a4.639 4.639 0 0 1-1.841 1.639 5.675 5.675 0 0 1-2.645.618zm.4-2.257a3.782 3.782 0 0 0 2.983-1.318 5.456 5.456 0 0 0 0-6.852 3.8 3.8 0 0 0-2.983-1.343 3.855 3.855 0 0 0-2.983 1.343 4.909 4.909 0 0 0-1.21 3.413 4.845 4.845 0 0 0 1.21 3.412 3.852 3.852 0 0 0 2.986 1.345z" transform="translate(-206.235 -230.106)"/>
                    <path id="Path_50685" data-name="Path 50685" class="cls-5" d="M252.359 251.63h-2.365v-1.83h-.108a4.4 4.4 0 0 1-1.733 1.613 4.98 4.98 0 0 1-2.432.644 4.865 4.865 0 0 1-3.721-1.381 5.521 5.521 0 0 1-1.3-3.936v-8.278h2.472v8.117q.081 3.224 3.252 3.224a3.1 3.1 0 0 0 2.472-1.2 4.338 4.338 0 0 0 .994-2.863v-7.283h2.473z" transform="translate(-211.724 -232.173)"/>
                    <path id="Path_50686" data-name="Path 50686" class="cls-6" d="M263.411 249.563h-2.472v-19.242h2.472v8.251h9.621v-8.251h2.473v19.242h-2.473v-8.681h-9.621z" transform="translate(-216.865 -230.106)"/>
                    <path id="Path_50687" data-name="Path 50687" class="cls-6" d="M288.172 231.78a1.744 1.744 0 1 1-.511-1.237 1.686 1.686 0 0 1 .511 1.237zm-.511 4.541v13.169h-2.472v-13.168z" transform="translate(-222.894 -230.033)"/>
                    <path id="Path_50688" data-name="Path 50688" class="cls-6" d="M298.919 251.63h-2.472l-5.322-13.168h2.688l3.871 10.212h.053l3.924-10.212h2.634z" transform="translate(-224.531 -232.173)"/>
                    <path id="Path_50689" data-name="Path 50689" class="cls-6" d="M316.053 251.914a6.3 6.3 0 0 1-4.784-1.988 7.025 7.025 0 0 1-1.881-5.025 7.151 7.151 0 0 1 1.828-5.012 6.57 6.57 0 0 1 9.338-.108 7.577 7.577 0 0 1 1.734 5.308l-.027.269h-10.346a4.29 4.29 0 0 0 1.289 3.117 4.167 4.167 0 0 0 6.665-1.182l2.2 1.074a6.557 6.557 0 0 1-2.459 2.607 6.8 6.8 0 0 1-3.557.94zm-3.95-8.6h7.551a3.281 3.281 0 0 0-1.115-2.271 3.905 3.905 0 0 0-2.7-.9 3.587 3.587 0 0 0-2.405.859 4.108 4.108 0 0 0-1.334 2.312z" transform="translate(-229.169 -232.027)"/>
                </g>
            </g>
        </g>
    </g>
</svg>
