<svg xmlns="http://www.w3.org/2000/svg" width="88" height="88">
    <defs>
        <clipPath id="clip-path">
            <path id="Rectangle_9109" data-name="Rectangle 9109" transform="translate(-.253 -.253)" style="fill:none;stroke:#707070" d="M0 0h52v52H0z"/>
        </clipPath>
        <style>
            .cls-4{fill:#3bbfad}.cls-5{fill:#f6bd3b}
        </style>
    </defs>
    <g id="Group_61637" data-name="Group 61637" transform="translate(-340 -2679)">
        <g id="Group_54882" data-name="Group 54882" transform="translate(340 2679)">
            <rect id="Rectangle_7121" data-name="Rectangle 7121" width="88" height="88" rx="36" style="fill:#fff"/>
        </g>
        <g id="Group_61636" data-name="Group 61636" transform="translate(-159.194 2302.806)">
            <g id="ic_play" transform="translate(517.446 394.446)" style="clip-path:url(#clip-path)">
                <g id="Group_55925" data-name="Group 55925" transform="translate(5.237 6.979)">
                    <g id="Group_55930" data-name="Group 55930">
                        <path id="Path_131780" data-name="Path 131780" class="cls-4" d="m346.629 542.421 2.453 1.294 6.992-13.26a1.386 1.386 0 1 0-2.453-1.293z" transform="translate(-315.214 -512.151)"/>
                        <path id="Path_131781" data-name="Path 131781" class="cls-4" d="M288.077 543.063h16.566a5.654 5.654 0 0 1 5.571 5.734v.913a.516.516 0 0 0 .507.523h4.722a3.446 3.446 0 0 1 0 6.884h-8.678a2.992 2.992 0 0 1-2.948-3.035v8.831a.516.516 0 0 1-.508.523h-19.787a1.031 1.031 0 0 1-1.016-1.045v-13.6a5.655 5.655 0 0 1 5.571-5.728z" transform="translate(-282.507 -523.911)"/>
                        <path id="Path_131782" data-name="Path 131782" class="cls-4" d="M298.355 508.343a6.293 6.293 0 1 1 12.585.007v3.685a6.293 6.293 0 0 1-12.585-.007v-3.685z" transform="translate(-290.954 -502.054)"/>
                        <path id="Path_131783" data-name="Path 131783" class="cls-5" d="M335.238 504.378a1.387 1.387 0 0 1 1.387-1.387h13.421a1.387 1.387 0 0 1 0 2.774h-13.421a1.387 1.387 0 0 1-1.387-1.387z" transform="translate(-310.412 -502.991)"/>
                        <path id="Path_131784" data-name="Path 131784" class="cls-5" d="M335.238 517.433a1.387 1.387 0 0 1 1.387-1.387h13.421a1.387 1.387 0 0 1 0 2.774h-13.421a1.387 1.387 0 0 1-1.387-1.387z" transform="translate(-310.412 -509.949)"/>
                    </g>
                </g>
            </g>
        </g>
    </g>
</svg>
