<svg xmlns="http://www.w3.org/2000/svg" xmlns:xlink="http://www.w3.org/1999/xlink" width="72" height="72">
    <defs>
        <linearGradient id="a" x1="1.672" y1=".137" x2=".163" y2=".702" gradientUnits="objectBoundingBox">
            <stop offset=".497" stop-color="#ff4d4d"/>
            <stop offset="1" stop-color="#ff3d3d"/>
        </linearGradient>
        <linearGradient id="c" x1="1.099" y1=".011" x2=".02" y2=".892" xlink:href="#a"/>
        <clipPath id="b">
            <path data-name="Rectangle 9118" transform="translate(300 1031)" style="fill:none;stroke:#707070" d="M0 0h40v40H0z"/>
        </clipPath>
    </defs>
    <g data-name="Group 61622" transform="translate(-284 -1015)">
        <circle data-name="Ellipse 1040" cx="36" cy="36" r="36" transform="translate(284 1015)" style="fill:#f74646;opacity:.16"/>
        <g data-name="Mask Group 58081" style="clip-path:url(#b)">
            <g data-name="Group 61620">
                <path data-name="Path 132368" d="M370.752 139.116v15.572a1.271 1.271 0 0 1-1.8 1.11l-4.4-1.924-2.547-1.115-.356-.155v-11.359l.356-.158 2.547-1.13 4.391-1.948a1.271 1.271 0 0 1 1.809 1.107z" transform="translate(-32.741 903.973)" style="fill:url(#a)"/>
                <path data-name="Path 132370" d="M63.605 95.472v18.071a3.55 3.55 0 0 1-3.623 3.472H39.624A3.551 3.551 0 0 1 36 113.543V95.472A3.551 3.551 0 0 1 39.624 92h20.358a3.744 3.744 0 0 1 1.22.2 3.485 3.485 0 0 1 2.403 3.272z" transform="translate(266.989 946.367)" style="fill:url(#c)"/>
                <path data-name="Path 132373" d="M166.432 188.962h-.11a1.006 1.006 0 0 0-1 .936v10.02a1.022 1.022 0 0 0 1.089.937 1.208 1.208 0 0 0 .628-.174l8.214-5.007a.861.861 0 0 0 .257-1.31 1.027 1.027 0 0 0-.257-.222l-8.214-5.014a1.207 1.207 0 0 0-.611-.169z" transform="translate(147.957 856.8)" style="fill:#fff"/>
            </g>
        </g>
    </g>
</svg>
