<svg xmlns="http://www.w3.org/2000/svg" width="88" height="88" viewBox="0 0 88 88">
    <defs>
        <clipPath id="2ya6md8oma">
            <path fill="none" d="M0 0H56V56H0z"/>
        </clipPath>
    </defs>
    <g>
        <rect width="88" height="88" fill="#fff" rx="44"/>
    </g>
    <g>
        <g clip-path="url(#2ya6md8oma)" transform="translate(16 16) translate(0 0)">
            <g>
                <path fill="#fd8a80" d="M115.647-398.392a4.526 4.526 0 0 1-.993 1.937 2.981 2.981 0 0 1-2.043.858 20.325 20.325 0 0 1-2.152-.04 16.1 16.1 0 0 1-2.32-.228 15.283 15.283 0 0 1-5.033-1.709 14.736 14.736 0 0 1-4.122-3.475 4.4 4.4 0 0 1-.947-3.171c.452-2.376 1-4.732 1.564-7.082q.406-1.683.818-3.366a24.246 24.246 0 0 1 .835-3.089 7.462 7.462 0 0 1 5.9-4.815 6.818 6.818 0 0 1 7.211 2.808 6.634 6.634 0 0 1 .855 5.706 11.934 11.934 0 0 1-.931 2.4 6.276 6.276 0 0 1-1.257 1.864 3.642 3.642 0 0 1-2.932.794 2.586 2.586 0 0 1-1.508-.657 1.667 1.667 0 0 1-.343-1.822 2.478 2.478 0 0 1 1.363-1.135 17.656 17.656 0 0 0 1.957-.845 2.691 2.691 0 0 0 1.511-2.5 5.742 5.742 0 0 0-1.1-3.2 4.265 4.265 0 0 0-5.914-.871 6.979 6.979 0 0 0-2.528 9.451 7.777 7.777 0 0 0 3.458 3.086 9.449 9.449 0 0 0 11.435-2.881c-.009-.003-2.784 11.982-2.784 11.982z" transform="translate(3.332 1.785) translate(-87.114 430.54)"/>
                <path fill="#3385ff" d="M67.7-428.75c.683-5.346 2.327-10.032 6.64-13.665a17.426 17.426 0 0 1 8.412-3.755c5.673-.931 10.758.535 14.523 5.052a12.825 12.825 0 0 1 2.921 11.236 3.924 3.924 0 0 1-3.165 3.076 10.056 10.056 0 0 0 .812-1.746c3.092-8.758-5.006-17.51-14.6-15.777-9.689 1.749-15.216 12.467-12.51 21.618 2.33 7.88 9.953 13.467 18.038 14.065a28.877 28.877 0 0 0 3.161.056c7.64-.267 13.972-4.405 18.084-10.712a8.763 8.763 0 0 1 4.336-3.455 29.74 29.74 0 0 1-29.684 28.75 29.586 29.586 0 0 1-17.639-5.6 4.907 4.907 0 0 1-1.964-4.669z" transform="translate(3.332 1.785) translate(-65.019 446.438)"/>
            </g>
        </g>
    </g>
</svg>
